<?xml version="1.0" encoding="utf-8"?>
<!-- Generator: Adobe Illustrator 14.0.0, SVG Export Plug-In . SVG Version: 6.00 Build 43363)  -->
<!DOCTYPE svg PUBLIC "-//W3C//DTD SVG 1.1//EN" "http://www.w3.org/Graphics/SVG/1.1/DTD/svg11.dtd">
<svg version="1.1" id="Capa_1" xmlns="http://www.w3.org/2000/svg" xmlns:xlink="http://www.w3.org/1999/xlink" x="0px" y="0px"
	 width="507px" height="755px" viewBox="0 0 507 755" enable-background="new 0 0 507 755" xml:space="preserve">
<g>
	<path fill="#FAF8F8" d="M268.948,316.524c0.078,0.106,0.159,0.186,0.333,0.288l39.363-95.288l-23.5,5.157l-7.438,17.507
		l-66.386,13.97l-5.786-13.831l-2.923,0.65l24.82,58.129C243.083,304.414,256.594,308.015,268.948,316.524 M276.325,247.464
		l-22.917,54.033c-12.144-1.266-24.355-0.728-24.355-0.728l-16.698-40.125L276.325,247.464z"/>
	<path fill="#FAF8F8" d="M323.86,571.367c2.551-4.116,4.941-8.354,7.278-12.723l-41.543-97.12l-5.588-13.132
		c-2.408,3.523-4.951,6.802-7.683,9.952l4.699,11.179L323.86,571.367z"/>
	<polygon fill="#FAF8F8" points="50.327,254.793 50.327,216.922 48.679,216.01 39.373,240.575 42.938,246.801 	"/>
	<path fill="#FAF8F8" d="M461.746,412.12l-2.379-0.497c-0.164,8.514-0.512,16.868-1.034,25.145l-35.104-5.996
		c0.725-8.635,1.226-17.361,1.371-26.21l34.767,7.062c0.092-0.816,0.092-1.648,0.092-2.458l-32.678-7.448l18.094-1.403l14.584-4.042
		l1.762-0.504l1.929,0.529l27.261,6.802l-32.351,6.315l2.011,3.47l3.022-1.111l36.375-8.411l0.312-23.624l-36.933-9.848l-0.23-0.057
		c-0.11-6.773-0.477-13.469-0.793-20.093l14.851-6.628l19.717-12.364l-2.578-24.222l-38.027-14.681l-0.163,0.046
		c-0.306-1.385-0.49-2.674-0.689-4.037l11.91-8.637l19.958-22.231l-8.943-22.816l-38.873-16.946l-5.974,2.519l3.548-5.253
		l36.503-7.594v-25.924l-19.109-10.01V30.354v-0.142L420.21,7.762l-29.04,10.485V51.85l-34.063-21.345l-27.74,9.924v144.922
		l-41.909,9.981v-24.679l22.637-6.461c13.767-4.09,14.371-11.871,14.371-16.344V91.433c0-12.552-7.537-16.602-7.537-16.602
		l-17.877-10.4c-14.4-8.546-23.837-4.435-23.837-4.435l-44.698,15.911v26.861l-5.655-2.84V56.475l-68.09-35.361v3.531l19.788,10.35
		v50.5l-19.788-9.587V24.644H156.7v-3.531l-27.787,11.562v53.048l25.77-9.107v4.886l-25.77,9.061v54.632l25.77-7.899v4.866
		l-25.77,7.887v55.861l25.77-6.589v4.847l-25.77,6.658v53.869l27.787-5.863v-51.494h0.071v-3.655l16.3,7.832v11.19l-9.814,2.348
		v23.903l270.482-60.924l34.074,16.266l-34.074,7.186l-25.208-12.162l-80.846,18.083c2.277,4.248,4.533,8.603,6.696,13.092
		c0.191,0.595,0.469,1.165,0.813,1.751l-2.859,0.46h-0.071c-0.11-0.279-1.271-2.808-1.964-4.111l-42.566,100.596l-3.187-0.751
		l6.255-14.783l23.251-54.74l5.847-13.861l3.033-7.177l1.499-3.447l4.28-9.819c-1.492-2.754-2.803-5.202-3.655-6.612l-12.243,2.525
		l-7.435,17.834l-1.325,3.405l-2.45,5.728l-0.583,1.463l-22.16,53.705l-6.73,16.266l-1.091,2.76l-1.367,3.252l-1.524-0.295
		l-1.925-0.494l1.925-4.614c-11.686-8.432-25.616-13.602-40.513-14.998c-1.364-0.125-2.585-0.229-3.903-0.281l-10.151-24.173
		l-14.46-34.328l-10.699,2.367l8.45,20.292c-1.307-1.624-2.941-2.522-4.852-2.522h-0.277l-0.256-0.744l-6.788-16.195l-21.443,4.75
		v8.598l8.837,20.94c-1.179,1.694-1.865,3.731-1.865,5.932c0,3.706,1.993,7.001,4.927,8.912v21.947l-20.307,3.01
		c-0.291,0.083-0.607,0.181-0.934,0.288l-6.102,3.129l-18.9,3.112v6.521l-5.033,2.583v-8.256l-21.283,3.418v15.664l-5.015,2.611
		v-17.412l-18.14,2.955v23.663l-5.058,2.561v-25.395l-20.448,3.365v32.515l-3.609,1.822v-50.516v-9.55v-28.877L39.5,283.392
		l-13.824,0.353l-5.541,21.736l10.631,9.842l18.09,9.615c-1.123,7.445-2.131,15.046-3.005,22.737l-12.432-1.57l-20.05,3.792
		l-2.11,21.043l18.9,10.118l7.907,1.414L16.14,393.657c-1.347,0.696-1.929,2.21-1.553,3.566c0.384,1.393,1.791,2.298,3.168,2.152
		l24.81-2.614c-0.124,2.76-0.146,5.552-0.224,8.262l7.229-8.727l23.517,29.545l-0.22,146.108c1.691,4.088,3.573,8.116,5.569,12.005
		l-5.654,0.178l0.085-12.183c-1.016-2.167-1.929-4.341-2.831-6.532c-0.6-1.484-1.154-2.895-1.737-4.333v-3.375l0.234-130.575
		l-19.13-24.466l-18.74,22.65L30.55,452.2l13.646,2.074c0.65,7.25,1.424,14.386,2.365,21.39l2.416,19.397l3.911,15.561
		c0.888,4.185,1.904,8.216,3.005,12.262l-20.907-0.885l17.902-11.377c-2.561-11.245-4.657-22.874-6.326-34.958l-16.119,10.453
		L30.4,525.029l26.419,1.356c0.7,2.547,1.436,4.99,2.117,7.448l-15.998,16.612L34.72,567.29l8.695,20.207l24.86-0.097L68.2,610.727
		l4.582-9.86v-0.028V587.4l7.295-0.085l1.144-0.021l-0.661,0.984l-7.778,12.56v20.435c-1.506-0.459-2.962-0.906-4.582-1.293v-9.253
		l-3.851,8.414c-4.717-0.888-9.938-1.367-15.337-1.367c-6.862,0-13.221,0.731-18.854,2.146l0.242-94.89l-2.991-0.125l-1.438-0.447
		l-0.352,96.705c-9.708,3.179-16.02,8.329-16.02,14.048c0,9.689,17.628,17.497,39.413,17.497c16.321,0,30.354-4.384,36.364-10.678
		l25.24-0.912l-5.313,13.653l-0.249,23.265l10.826,10.073l36.429-3.14l-0.192,0.813l1.648,28.149l14.364,7.097l35.214-3.673
		l4.827,14.055l16.619,2.82l40.77-4.063l0.54,1.243l0.234,0.682l0.625,1.301l14.641-0.167l25.325-3.506l17.028-5.033l2.458-11.438
		l35.019-3.736l17.259-12.929c23.351-2.093,40.847-11.143,40.847-21.912c0-2.653-0.966-5.179-2.877-7.498l12.425-14.467
		l-6.124-25.979l-7.125-11.562l36.493-1.393l10.655-18.395l-9.956-23.656l-13.035-16.189c0.895-2.699,1.783-5.502,2.61-8.216
		l35.402,1.204l5.548-22.533l-14.016-16.165l-14.95-11.601c1.2-6.717,2.309-13.562,3.332-20.441l11.742,2.106l24.075-2.237
		l4.163-21.035l-18.844-12.449l-17.003-6.646c0.469-8.45,0.931-17.032,1.041-25.748L461.746,412.12z M462.791,372.779l34.177,9.188
		l-0.312,18.914l-33.506-7.913l0,0l-0.629-20.296L462.791,372.779z M391.17,97.413L359.195,36.54l31.975,19.345V97.413z
		 M357.106,101.204l34.063,68.84v0.499l-34.063,8.113V101.204z M258.082,96.264l9.762,4.869v21.374c0,1.35-1.147,2.795-2.583,3.255
		l-7.179,2.11V96.264z M279.952,167.629c5.608,2.618,4.979,7.983,4.979,7.983v20.375l-26.85,6.394v-44.026
		C264.543,161.012,275.97,165.848,279.952,167.629 M285.561,148.473c10.51-3.465,10.055-14.234,10.055-14.234
		s0.242-57.266,0.242-62.436c0-5.171-2.82-7.372-2.82-7.372s12.311,6.974,20.878,11.704c8.688,4.711,8.021,16.138,8.021,16.138
		v55.575c0,9.659-12.254,13.737-12.254,13.737l-22.552,6.575l-26.032-11.59C261.098,156.57,274.972,151.91,285.561,148.473
		 M265.261,91.094L265.261,91.094c1.436-0.325,2.583,0.451,2.583,1.84v5.358l-9.762-4.887v-0.146L265.261,91.094z M222.183,98.611
		l-16.225-8.102V50.262l16.225,8.466V98.611z M192.681,89.571V43.357l10.635,5.516v40.293l-4.057-2.044L192.681,89.571z
		 M179.237,36.351l10.83,5.657v48.466l-1.854,0.62l-8.976-4.341V36.351z M156.771,80.601l26.046,12.48l-9.747,3.507v47.961
		l-16.3-7.943v-3.337l-0.071-0.032V84.496h0.071V80.601z M156.771,198.744v-3.305H156.7V145.17l0.071,0.025v-3.635l16.3,7.784
		v57.289L156.771,198.744z M199.259,91.147l31.257,15.625v102.202l-31.257,7.514V91.147z M420.21,163.597V12.592l30.355,19.678
		v136.92l-16.826-8.855L420.21,163.597z M433.739,163.137l35.797,18.71v20.903l-35.797-17.79V163.137z M33.448,449.892l9.967-1.716
		l0.433,3.137L33.448,449.892z M68.274,584.219l-21.301,0.408l14.719-10.62l6.606-6.88L68.274,584.219z M434.208,473.529
		l20.065,3.573c-0.917,7.029-2.152,13.97-3.389,20.754l-37.37-3.456c1.929-8.403,3.62-17.074,5.055-25.836L434.208,473.529z
		 M402.806,553.338v0.071l-0.035-0.071H402.806v-20.68c-1.491,4.49-3.005,8.93-4.653,13.253v7.199l0,0v0.054v-0.054l-2.742-0.163
		c0.974-2.33,1.805-4.699,2.742-7.036v-141.53l-24.277-33.026l-3.47-4.749l-3.861,5.916l-10.851,16.718l11.245-0.917
		c0,1.308,0.071,2.604,0.071,3.883v0.558l-14.399,1.25l-6.671,10.226v2.7l20.878-1.815c-1.235,41.721-8.489,81.232-20.029,115.63
		l0.842,113.754c-0.639,0.827-3.836,4.433-4.691,5.388l0,0l0,0l0,0l-0.735-106.312c-2.358,6.018-4.816,11.902-7.435,17.55
		l-40.651-94.662c11.263-13.263,19.429-29.335,23.187-47.056l23.94-2.067v-3.108l6.386-9.842l-73.308,6.19
		c-0.889,8.23-2.742,16.115-5.374,23.383c-1.104,2.866-2.252,5.569-3.524,8.187l3.524,8.461l5.867,14.02
		c2.707-3.146,5.168-6.628,7.438-10.226c0.781-1.158,1.545-2.376,2.294-3.641c5.235-8.897,9.231-18.708,11.924-29.183l3.662-0.277
		c-2.923,12.126-7.641,23.436-13.881,33.509l5.956,13.856l40.943,95.895c0.039-0.139,0.113-0.263,0.203-0.355l-0.164,0.391
		l-0.039-0.035c-3.527,7.448-7.338,14.41-11.295,21.066l-0.27-0.621l-43.33-103.279l-6.053-14.062c0-0.032,0.032-0.032,0.032-0.032
		l-3.289-7.928l-5.673-13.483c0,0-5.758-0.923-10.815,2.768c-3.715,2.604-5.882,5.984-6.848,7.658
		c-2.146-2.594-4.582-5.002-7.154-7.186c9.942-8.571,17.291-21.973,19.784-37.53c0.291-1.488,0.477-3.012,0.675-4.546
		c0.221-2.586,0.334-5.189,0.334-7.822c0-5.221-0.532-10.193-1.46-14.99l11.49-1.201c-0.081,0.306-0.255,0.586-0.333,0.986
		c-1.173,3.242-2.679,9.7,0,15.831c0.823,2.081,2.252,4.155,4.305,6.002l46.296-3.889l31.179-2.629l15.482-23.874l1.698-2.559
		l4.671-0.543l2.841,3.829l27.386,37.746v128.377c0.434-1.328,0.945-2.653,1.286-4.023l17.76,13.536l17.22,4.411
		c-0.824,2.963-1.77,5.832-2.7,8.678L402.806,553.338z M355.928,652.87c-2.777,0.355-5.549,0.728-8.099,1.265l-0.163-13.768
		L355.928,652.87z M332.648,653.836l10.389-11.562l0.036,11.562H332.648z M339.734,656.12c-4.166,1.215-7.832,2.771-10.933,4.497
		l5.029-4.497H339.734z M143.131,544.664c0.153,0.025,0.306,0.025,0.522,0.025c0.451,0.067,0.899,0.148,1.36,0.148
		c0.959,0.128,1.929,0.238,2.892,0.238c4.404,2.352,9.05,4.33,13.959,5.903c1.187,0.355,2.383,0.688,3.545,1.052
		c1.836-0.565,3.957-1.684,6.088-3.783c1.996-2.007,3.808-4.81,5.278-9.075c4.905-14.783,4.042-13.039,10.087-16.812
		c3.85-2.365,3.705-6.287,4.746-10.78c1.754-0.028,3.374-0.085,5.04-0.085c-0.668,2.23-0.991,4.376-0.991,6.216
		c0,5.513-5.878,5.779-9.267,7.786c-3.573,2.138-2.376,5.242-3.573,9.303c-1.137,4.123-4.632,9.594-6.042,12.189
		c-0.249,0.579-0.696,1.137-1.165,1.772c-1.286,1.684-3.051,3.552-4.092,4.646c2.586,0.443,5.165,0.82,7.718,1.022
		c1.403-1.311,3.356-3.211,5.196-5.242c2.849-2.881,5.666-6.06,6.585-7.988c2.018-4.315,2.018-7.242,10.727-11.299
		c14.19-5.814,7.253-14.503,11.555-18.573c0.213-0.209,0.455-0.384,0.607-0.579c1.005-0.067,1.996-0.128,2.895-0.217
		c-1.428,2.338-0.866,4.614-1.864,7.001c-1.332,3.289-2.149,8.76-5.03,10.528c-2.934,1.775-4.746,5.665-7.86,6.895
		c-3.172,1.189-5.466,3.271-6.866,7.355c-0.725,2.082-4.074,4.525-6.635,6.869c-2.252,2.039-3.772,4.089-1.836,5.592
		c0.664,0,1.261,0,1.886-0.012c28.778-0.866,54.33-17.475,62.642-43.845c0.533-1.456,0.874-2.944,1.222-4.454
		c-8.159,24.075-31.456,39.615-58.98,42.364c0.931-1.236,1.911-2.447,2.742-3.521c2.898-4.105,9.313-8.638,12.875-12.321
		c3.538-3.758,5.456-8.237,7.63-11.16c2.032-2.849,0.881-7.995,4.965-11.707c1.733-0.188,3.385-0.295,5.047-0.497
		c-0.771,2.571-1.776,4.426-4.245,9.008c3.584-3.396,5.747-5.812,7.232-9.359c1.634-0.245,3.261-0.473,4.816-0.689
		c-1.812,7.168-4.248,13.846-7.111,18.41c4.007-4.572,7.324-11.363,9.598-18.865c12.275-1.96,20.459-4.748,22.011-7.881v0.106
		c-4.34,33.587-34.343,59.58-70.829,59.58C171.074,559.931,155.417,554.215,143.131,544.664 M120.875,437.857
		c-0.128-4.017-0.128-8.557,0.106-13.529l4.199-0.306c-0.043,3.076-0.121,12.663,0.508,21.955c0.146,2.135,0.419,4.255,0.643,6.315
		c-1.304,1.829-2.54,3.619-3.584,5.513C122.146,454.534,121.167,447.753,120.875,437.857 M128.938,425.319
		c0-0.547,0.05-1.065,0.149-1.577l24.714-1.822c-0.881,2.352-1.492,4.951-1.655,7.936c-8.709,4.592-16.375,10.723-22.438,18.075
		C129.293,442.78,128.696,431.993,128.938,425.319 M173.032,399.845c-0.206-0.824-1.073-1.471-2.238-1.471
		c-0.497,0-0.917,0.182-1.357,0.384c-0.292-0.675-1.115-1.158-2.067-1.158c-1.286,0-2.295,0.774-2.295,1.776
		c0,0.263,0.014,0.469,0.135,0.629c-5.278,0-10.208-0.536-13.639-2.057c-5.935-2.692-1.829-2.479-0.391-3.882
		c1.414-1.468-6.564-1.666-6.564-4.564c0-1.748,1.3-2.87,2.302-3.506l16.275-1.659c3.257,0.792,8.901,2.28,10.535,3.154
		c2.156,1.215,24.537,2.855,30.085,4.085c5.541,1.218,12.524,3.893,12.524,15.174c0,8.954-11.295,10.95-15.792,11.33v-3.317
		c0.227-0.263,0.376-0.582,0.376-0.881c0-0.195-0.053-0.397-0.106-0.521c1.151-0.136,2.074-0.729,2.074-1.521
		c0-0.163-0.039-0.291-0.135-0.451c0.292,0.092,0.59,0.199,1.059,0.199c0.931,0,1.723-0.473,1.723-1.102
		c0-0.512-0.394-0.881-0.962-1.022c0.206-0.149,0.398-0.299,0.398-0.646c0-0.455-0.426-0.771-1.044-0.771
		c-0.583,0-1.037,0.316-1.037,0.771c0,0.213,0.125,0.469,0.32,0.597c-0.693,0.142-1.243,0.532-1.243,1.072
		c0,0.021,0.082,0.125,0.082,0.156c-0.387-0.234-0.962-0.355-1.502-0.355v-1.548c1.265-1.507,1.421-2.813,0.845-3.922
		c0.881-0.213,1.46-0.785,1.46-1.456c0-0.842-1.041-1.549-2.337-1.549c-0.884,0-1.523,0.284-1.95,0.707l0,0
		c-0.568-0.273-1.215-0.522-1.805-0.742c0.494-0.263,0.849-0.469,0.849-0.753c0-0.256-0.22-0.483-0.646-0.679
		c0.291-0.178,0.533-0.43,0.533-0.707c0-0.618-0.845-1.083-1.787-1.083c-1.055,0-1.776,0.465-1.776,1.083
		c0,0.015,0,0.043,0.067,0.114c-0.32,0-0.636-0.071-0.849-0.071c-1.428,0-2.671,0.234-3.466,0.525
		c-0.355-0.039-0.665-0.103-0.938-0.139c0.028-0.063,0.153-0.217,0.153-0.287c0-0.611-1.108-1.08-2.379-1.08
		c-1.226,0-2.199,0.419-2.352,0.938c-0.231,0-0.434-0.057-0.7-0.063c0.266-0.271,0.469-0.622,0.469-0.959
		c0-0.928-0.934-1.677-2.06-1.677c-1.059,0-1.9,0.749-1.9,1.677c0,0.312,0.131,0.61,0.334,0.905c-0.586,0-1.19,0-1.737,0
		c-0.085-0.657-0.693-1.204-1.499-1.204c0.284-0.234,0.476-0.558,0.476-0.959c0-0.699-0.643-1.307-1.471-1.307
		c-0.789,0-1.484,0.607-1.484,1.307c0,0.725,0.632,1.258,1.36,1.258c-0.31,0.248-0.533,0.61-0.533,1.022v0.043
		C174.595,399.753,173.877,399.81,173.032,399.845 M122.246,518.007c-3.492-8.038-5.48-16.794-5.48-25.954
		c0-25.065,14.282-46.867,35.483-58.604c1.102,8.443,9.083,18.048,30.092,28.555c-0.806,0.816-3.104,3.381-3.829,5.513
		c-0.906,2.628-3.467,2.628-5.786,4.084c-2.348,1.464-6.536,5.569-5.811,9.843c0.455,2.543-0.202,4.394-1.055,5.953
		c-3.293,0.17-6.433,0.38-9.473,0.689c0.384-8.198,1.96-15.789,4.49-22.235c-3.953,6.095-6.528,13.892-7.111,22.459
		c-1.697,0.138-3.328,0.33-4.976,0.508c0.426-11.839,3.136-22.693,7.385-31.527c-5.698,8.472-9.338,19.678-9.768,31.847
		c-2.771,0.355-5.47,0.731-7.871,1.147c0.284-12.503,3.431-24.125,8.592-33.623c-7.157,9.253-11.597,21.148-11.817,34.252
		c-1.364,0.245-2.728,0.568-3.957,0.862v-0.439c0-13.37,3.871-25.72,10.396-35.712c-8.34,9.658-13.38,22.055-13.38,35.712
		c0,0.439,0.042,0.773,0.042,1.172c-6.958,1.911-10.943,4.162-10.943,6.646c0,2.71,4.834,5.164,13.018,7.157
		c2.195,7.736,6.088,14.783,11.264,20.68c-3.857-5.896-6.752-12.663-8.511-20.033c1.354,0.28,2.767,0.558,4.227,0.855
		c1.996,7.211,5.289,13.803,9.661,19.373c-3.115-5.673-5.377-12.038-6.876-18.907c2.568,0.426,5.417,0.859,8.351,1.183
		c1.705,6.357,4.28,12.154,7.573,17.049c-2.448-5.015-4.33-10.691-5.683-16.857c1.46,0.171,2.859,0.316,4.383,0.466
		c-0.316,1.647-0.191,3.712,0.444,6.45c2.028,8.354,4.045,9.26,0.288,13.061c-2.686,2.582-0.863,6.29,0.433,8.123
		c-8.738-2.38-18.86-6.099-25.744-11.618C126.899,523.356,124.214,520.6,122.246,518.007 M238.061,484.626
		c-0.114,1.868-0.135,3.684-0.352,5.604c-1.268-0.209-2.632-0.447-3.996-0.621c-0.149-2.785-1.222-6.465-1.648-7.704
		C234.182,482.839,236.217,483.763,238.061,484.626 M229.812,480.992c0.991,3.981,0.359,6.624-0.376,8.014
		c-0.859-0.132-1.733-0.217-2.614-0.316c-0.824-1.542-1.052-4.202,0.071-8.802l-0.49-0.273
		C227.579,480.09,228.726,480.545,229.812,480.992 M222.741,488.31c-1.048-0.114-2.063-0.224-3.2-0.355
		c0.576-4.678,2.728-7.7,1.371-10.479c1.065,0.405,2.113,0.846,3.204,1.254C223.774,479.962,222.652,484.355,222.741,488.31
		 M203.045,487.006c-0.86-0.015-1.698-0.096-2.5-0.096c-0.7-4.604-1.041-9.231,5.122-14.965c1.527,0.533,3.083,1.154,4.703,1.723
		c0.28,0.078,0.458,0.11,0.707,0.231C209.908,475.33,204.359,482.48,203.045,487.006 M163.665,495.37
		c2.7,5.573,0.075,7.569-3.406,9.001c-0.98,0.412-1.939,0.853-2.724,1.492c-0.764-4.345-1.261-8.958-1.261-13.789
		c2.238-0.121,4.653-0.26,7.09-0.377C163.051,492.777,163.051,493.921,163.665,495.37 M131.453,494.628
		c1.158-0.228,2.533-0.43,3.886-0.601c0.085,3.436,0.579,6.916,1.236,10.173c-1.382-0.23-2.785-0.451-4.053-0.675
		C131.993,500.652,131.645,497.654,131.453,494.628 M129.641,503.085c-6.28-1.222-10.087-2.589-10.087-4.148
		c0-1.35,3.282-2.625,8.947-3.758C128.696,497.856,129.087,500.521,129.641,503.085 M138.535,493.634
		c2.401-0.312,5.008-0.601,7.871-0.835c0,4.315,0.395,8.553,1.229,12.57c-2.852-0.319-5.573-0.586-8.134-0.849
		C138.983,501.011,138.677,497.331,138.535,493.634 M148.729,492.589c1.605-0.159,3.222-0.245,4.876-0.348
		c0.068,4.767,0.743,9.405,1.922,13.643c-1.997-0.138-3.907-0.206-5.786-0.354C149.134,501.352,148.729,497.008,148.729,492.589
		 M196.222,502.939c4.195-4.394,4.962-8.109,4.798-11.661c0.828,0.058,1.719,0.058,2.515,0.078c1.357,3.211,2.507,6.539-0.686,8.994
		c-1.616,1.246-3.222,3.619-4.461,6.375c-1.63,0.093-3.314,0.093-5.026,0.146C194.112,505.529,194.954,504.247,196.222,502.939
		 M219.661,492.777c-0.057-0.27-0.057-0.536-0.121-0.725c1.371,0.057,2.554,0.16,3.836,0.188c0.164,0.458,0.355,0.898,0.583,1.176
		c2.479,3.385,2.121,8.826-1.463,12.446c-1.609,0.085-3.282,0.17-4.962,0.23C219.541,502.634,220.563,498.258,219.661,492.777
		 M230.051,505.237l0.959-3.591l0.103-6.344c0.369-0.639,0.931-1.432,1.712-2.27c1.577,0.171,3.125,0.302,4.554,0.479
		c-0.426,3.602-1.062,7.456-1.89,11.225C233.776,504.875,231.944,505.05,230.051,505.237 M240.263,493.861
		c10.517,1.378,16.84,3.146,16.84,5.075c0,2.217-7.168,4.074-18.929,5.48C239.098,500.969,239.801,497.331,240.263,493.861
		 M240.575,490.703c0.149-1.545,0.27-3.087,0.291-4.664c1.432,0.871,2.892,1.684,4.12,2.462c2.824,1.861,5.556,3.712,7.782,5.42
		C249.661,492.777,245.491,491.645,240.575,490.703 M255.209,468.749c-5.939-3.822-13.558-7.882-23.052-12.023
		c-2.309-4.99-5.779-9.559-10.301-13.391c3.108,3.8,5.338,7.572,6.99,12.009c-2.444-1.069-4.909-2.042-7.601-3.051
		c-0.284-0.125-0.568-0.225-0.824-0.295c-1.858-3.851-4.738-7.311-8.397-10.344c2.728,3.211,4.61,5.769,5.914,9.409
		c-41.753-16.055-43.941-20.835-42.186-25.844c0-0.014,0.131-0.057,0.131-0.057c0.995-0.121,1.801-0.249,2.767-0.391v-3.137v-17.437
		l3.942-0.383v3.53c0,0.625,0.409,1.111,0.995,1.111c0.579,0,1.065-0.486,1.065-1.111v-3.708l5.825-0.43
		c2.671,0.564,5.086,1.417,6.678,2.081v16.243v3.175c0.924,0.153,1.776,0.206,2.664,0.334
		C225.465,429.07,246.578,446.119,255.209,468.749 M197.156,388.422c-0.625-0.1-1.271-0.206-1.975-0.312
		c-4.127-0.618-7.623-1.087-10.528-1.549v-4.426l12.503-1.296V388.422z M182.593,386.266c-1.509-0.27-2.841-0.447-3.942-0.678
		v-2.892l3.942-0.369V386.266z M175.156,385.026c-2.742-0.49-4.426-0.859-5.719-1.314l5.719-0.586V385.026z M175.156,420.293
		c-1.471,2.057-4.262,6.578-2.124,10.344c2.273,5.545,12.094,10.965,49.062,24.945c17.472,6.635,58.433,20.672,50.018,47.663
		c-1.534,4.88-8.492,9.746-12.975,11.021c0.113-0.306,0.185-0.586,0.309-0.881l-0.405,0.505c0.21-0.793,0.679-2.842,1.208-4.866
		c0.473,0,1.083-0.121,1.581-0.576c0.866-0.636,1.172-1.577,0.746-2.177c-0.412-0.408-1.034-0.525-1.727-0.238
		c0.334-1.335,0.497-2.376,0.482-2.564c0-0.17-0.046-0.512-0.148-0.877c0.746,0.521,1.513,0.738,1.932,0.419
		c0.355-0.238,0.388-0.718,0.264-1.269c0.035,0.082,0.092,0.121,0.124,0.214c0.476,0.678,1.566,0.706,2.391,0.078
		c0.831-0.646,1.065-1.684,0.489-2.384c-0.489-0.714-1.555-0.738-2.404-0.071c-0.564,0.444-0.824,1.073-0.753,1.634
		c-0.199-0.437-0.454-0.994-0.888-1.545c-0.991-1.3-2.273-1.936-2.952-1.602c-0.853-1.481-2.202-3.236-4.042-5.164
		c0,0,0.121,0,0.182-0.104c1.068-0.846,1.261-2.668,0.224-3.981c-1.048-1.304-2.82-1.627-3.893-0.731
		c-0.448,0.273-0.618,0.703-0.732,1.129c-0.97-0.746-1.968-1.467-2.962-2.224c0.497-0.081,1.033-0.298,1.499-0.721
		c1.463-1.073,1.719-3.022,0.795-4.394c-1.108-1.226-3.033-1.393-4.461-0.303c-1.072,0.768-1.534,2.089-1.236,3.19
		c-1.354-0.785-2.763-1.663-4.387-2.562c0.153-0.412,0.153-0.881,0.082-1.36c0.412-0.06,0.803-0.263,1.108-0.472
		c0.508-0.483,0.796-1.105,0.902-1.894c0.533,0.316,1.137,0.33,1.581,0c0.65-0.451,0.65-1.499,0.067-2.224
		c-0.618-0.76-1.581-0.948-2.117-0.451c-0.057,0.032-0.078,0.149-0.149,0.156c-0.121-0.174-0.209-0.341-0.376-0.564
		c-1.329-1.719-3.523-2.199-4.788-1.197c-1.087,0.838-1.243,2.59-0.465,4.131c-0.067,0-0.067,0.047-0.16,0.086
		c-0.387,0.315-0.501,0.745-0.618,1.2c-2.476-1.286-5.268-2.512-8.308-3.812c0.16-1.218-0.479-2.773-1.765-3.942
		c-1.772-1.716-4.248-2.198-5.41-0.888c-0.416,0.401-0.558,0.973-0.583,1.673c-0.81-0.349-1.645-0.7-2.497-0.98
		c0.455-0.629,0.498-1.393,0.252-2.124c0.096-0.075,0.245-0.16,0.348-0.221c1.283-0.902,1.329-2.873,0.238-4.248
		c-1.123-1.382-2.962-1.783-4.134-0.853c-1.226,0.987-1.357,2.87-0.281,4.237c-0.437,0.423-0.622,1.084-0.622,1.688l0,0
		c-0.654-0.263-1.201-0.482-1.79-0.621c0.188-1.308-0.519-2.991-2.121-4.209c-0.721-0.533-1.574-0.952-2.412-1.126
		c0.046,0,0.064,0,0.163-0.039c0.643-0.483,0.675-1.429,0.1-2.224c0-0.05,0-0.05-0.05-0.05c0.05,0,0.153,0,0.17-0.082
		c0.927-0.657,0.927-2.195,0.05-3.328c-0.962-1.176-2.412-1.488-3.325-0.792c-0.917,0.696-0.948,2.259-0.121,3.424
		c0.27,0.249,0.583,0.498,0.856,0.675c-0.359,0.487-0.323,1.29,0.16,1.918c0.213,0.21,0.384,0.341,0.64,0.498
		c-0.622,0.092-1.123,0.312-1.485,0.784c-0.305,0.466-0.469,1.037-0.394,1.624c-0.668-0.256-1.311-0.544-2.035-0.746
		c0.305-1.464-0.888-3.311-2.906-4.628c-1.151-0.718-2.351-1.141-3.381-1.176c0.384-0.16,0.767-0.412,1.005-0.8
		c0.657-1.101,0.178-2.625-1.005-3.406c-1.318-0.816-2.895-0.582-3.545,0.526c-0.707,1.09-0.234,2.604,0.966,3.398
		c0.355,0.238,0.696,0.338,1.104,0.409c-0.49,0.146-0.881,0.408-1.14,0.795c-0.164,0.267-0.245,0.626-0.245,1.034
		c-1.46-0.703-2.92-1.389-4.301-2c-0.078-0.974-0.547-2.198-1.467-3.278c-0.82-1.144-1.936-1.964-2.905-2.241
		c1.129-0.92,1.055-2.792-0.096-4.302c-0.828-1.072-2.061-1.602-3.062-1.502c-0.078-0.146-0.078-0.21-0.224-0.31
		c-0.487-0.629-1.119-0.948-1.78-0.831c-0.028-0.621-0.249-1.317-0.746-1.89c-1.055-1.324-2.6-1.775-3.456-1.072
		c-0.991,0.714-0.884,2.369,0.117,3.598c0.778,1.065,2.06,1.584,2.909,1.375c0.146,0.234,0.181,0.561,0.43,0.771
		c0.192,0.252,0.522,0.479,0.746,0.611c0,0.803,0.327,1.701,0.952,2.493c0.625,0.807,1.36,1.3,2.216,1.492
		c-0.305,0.426-0.455,0.994-0.305,1.743c-2.039-1.079-3.893-2.177-5.676-3.2c-0.146-0.959-0.696-1.971-1.414-3.097
		c-1.623-1.868-3.58-2.881-4.579-2.113c-0.238,0.22-0.437,0.589-0.437,1.033c-2.301-1.712-4.397-3.382-6.002-4.958
		c0.426-1.137,0-2.956-1.265-4.515c-1.314-1.631-3.019-2.505-4.248-2.238c-0.497-0.855-0.845-1.641-1.172-2.469
		c0.675-0.284,1.36-0.823,1.705-1.641c0.757-1.612,0.348-3.382-0.923-4.035c-0.49-0.224-1.108-0.276-1.698-0.128
		c0.089-1.282,0.27-2.6,0.59-3.754c0,0.966,0.327,1.751,1.001,2.06c1.123,0.562,2.671-0.28,3.495-1.89
		c0.731-1.58,0.476-3.296-0.636-3.864c-1.047-0.447-2.209,0.067-3.029,1.261c0.82-2.063,1.896-3.907,3.292-5.548
		c0.188,0.703,0.607,1.265,1.24,1.602c1.293,0.618,2.948-0.177,3.687-1.747c0.774-1.56,0.476-3.239-0.774-3.936
		c3.591-2.912,7.68-4.923,11.033-5.953V420.293z M111.231,517.371c-0.501,0-0.962,0.185-1.197,0.465
		c0-0.966,0.089-1.832,0.206-2.604c0.213,0.306,0.49,0.516,0.771,0.516c0.494,0,0.881-0.725,0.881-1.673
		c0-0.743-0.309-1.396-0.742-1.553c1.502-3.385,4.156-4.745,4.156-4.745s0.089,0.412,0.249,1.126
		c-0.554,0.024-1.058,0.749-1.058,1.63c0,0.889,0.504,1.652,1.161,1.652c0.281,0,0.512-0.203,0.771-0.494
		c1.538,4.433,4.976,11.665,12.4,16.562c15.447,10.383,36.261,13.104,36.261,13.104c-3.878,0.788-8.013,1.239-12.275,1.239
		c-0.32-0.714-1.485-1.239-2.98-1.239h-0.028v-0.096c0-0.984-0.739-1.723-1.638-1.723c-0.792,0-1.367,0.564-1.534,1.229
		c-0.228,0-0.593,0-0.902,0c-1.364,0-2.529,0.174-3.452,0.494c0.191-0.284,0.302-0.661,0.302-1.027c0-0.909-0.519-1.645-1.154-1.645
		c-0.49,0-0.807,0.334-0.988,0.778c-0.469-0.195-0.977-0.319-1.584-0.319c-0.849,0-1.538,0.191-2.16,0.561
		c-0.426-0.465-1.271-0.824-2.103-0.849c0.149-0.444,0.256-0.909,0.256-1.474c0-1.368-0.576-2.501-1.211-2.501
		c-0.646,0-1.261,1.133-1.261,2.501c0,0.117,0.089,0.217,0.089,0.276c-0.54-0.276-1.229-0.479-1.979-0.479
		c-0.568,0-1.076,0.11-1.399,0.242c0.1-0.381,0.185-0.85,0.185-1.321c0-1.566-0.902-2.849-2.088-2.849
		c-0.696,0-1.272,0.341-1.655,1.026c-0.348-0.455-0.799-0.686-1.314-0.686c-0.334,0-0.533,0.1-0.853,0.337
		c-0.312-0.252-0.614-0.443-1.059-0.443c-0.419,0-0.788,0.191-1.136,0.469c-0.039-0.924-0.693-1.648-1.393-1.705
		c0-0.348,0.057-0.604,0.057-0.856c0-1.239-0.377-2.163-0.877-2.862c0.6-0.281,1.001-0.977,1.001-1.926
		c0-1.144-0.629-2.066-1.321-2.066c-0.764,0-1.438,0.923-1.438,2.066c0,0.395,0.128,0.803,0.327,1.141
		c-0.703,0-1.286,0.458-1.641,1.204c-0.252-0.149-0.486-0.277-0.675-0.277c-0.572,0-0.909,0.302-1.197,0.731
		c-0.071-0.081-0.117-0.174-0.188-0.244c0.409-0.487,0.675-1.283,0.675-2.16c0-0.61-0.1-1.076-0.327-1.538
		c0.831-0.163,1.488-0.923,1.488-1.953c0-1.108-0.76-2.061-1.719-2.061c-0.941,0-1.74,0.952-1.74,2.061
		c0,0.256,0.039,0.543,0.167,0.767c-0.473,0.086-0.782,0.395-1.051,0.725c-0.302-0.725-0.583-1.527-0.739-2.309
		c-0.121-0.525-0.305-1.083-0.333-1.538c0.333,0.203,0.632,0.295,0.991,0.295c1.005,0,1.808-0.884,1.808-1.957
		C113.04,518.277,112.237,517.371,111.231,517.371 M184.554,562.975c0.867,0.039,1.616,0.039,2.536,0.039
		c-4.628,9.774-8.709,26.462,10.496,38.844c14.961,9.587,32.884,14.729,48.992,14.729c25.844-0.011,46.783-10.937,46.783-10.937
		s-28.291,20.537-64.606,11.988C164.361,601.91,181.166,568.579,184.554,562.975 M234.16,612.229
		c-40.517-5.416-52.156-28.76-46.75-42.693c1.335-3.318,2.064-5.297,2.657-6.521c30.611-0.693,56.746-18.989,67.494-44.666
		c2.688-0.792,8.603-3.09,13.124-8.084l28.142,68.769c0,0,4.078,12.372-3.786,19.831
		C284.033,609.252,257.752,615.394,234.16,612.229 M409.668,274.616l41.593,15.89l0.323-0.213c0.082,0.641,0.231,1.227,0.303,1.836
		l-13.47,0.92l-22.555,7.926C414.03,291.962,411.977,283.244,409.668,274.616 M442.602,365.656h-18.548
		c-0.555-8.812-1.286-17.442-2.202-26.021l36.208,10.699c0.455,6.177,0.661,12.417,0.931,18.738L442.602,365.656z M491.611,308.779
		L493,328.746l-33.896-10.876l-0.113-0.083l-1.503-12.647l-1.09-10.167L491.611,308.779z M455.723,320.843l0.675-0.49l3.062,0.997
		l30.667,10.249l-14.022,8.995l-14.481,5.884l-2.163,0.86l-1.541-0.434l-33.864-10.242l16.289-5.626L455.723,320.843z
		 M476.104,236.746l6.45,18.85l-36.351-14.982l-5.3-19.429L476.104,236.746z M445.404,243.036l36.048,15.643l-17.429,19.154
		l-13.267,9.83l-38.304-15.789l19.45-14.065L445.404,243.036z M407.129,201.192l25.651,12.318l-6.272,8.917l-7.335,2.979
		L398.65,240.04c-2.657-7.255-5.52-14.357-8.61-21.159L407.129,201.192z M295.744,319.323l35.121-83.069l5.633-1.195
		c14.262,31.905,24.118,70.422,28.213,112.278l-59.505-14.025C302.39,328.366,299.274,323.69,295.744,319.323 M215.804,314.057
		l-3.666,0.479l-8.173-20.509c0.778-1.486,1.229-3.062,1.229-4.852c0-0.277,0-0.515-0.032-0.729L215.804,314.057z M202.612,282.264
		c-1.169-1.364-2.664-2.385-4.383-3.022c0.536-1.263,0.831-2.696,0.831-4.168c0-0.602-0.028-1.14-0.128-1.671L202.612,282.264z
		 M196.222,275.073c0,1.304-0.49,2.55-1.268,3.497c-0.156,0-0.327,0-0.575,0h-13.295c-0.267,0-0.416,0-0.668,0
		c-0.692-0.946-1.179-2.193-1.179-3.497c0-3.121,2.305-5.503,5.196-5.503h6.521C193.86,269.569,196.222,271.952,196.222,275.073
		 M173.259,289.176c0-4.156,4.014-7.592,8.937-7.592h11.043c4.991,0,8.947,3.437,8.947,7.592c0,1.6-0.604,3.104-1.641,4.344v-0.076
		c0,0-6.546-2.607-12.798-2.607c-6.287,0-12.591,2.607-12.591,2.607v0.444C173.998,292.573,173.259,290.966,173.259,289.176
		 M178.651,296.279c0,0,1.325-0.895,3.942-1.561v1.866c0,0.602,0.409,1.073,0.995,1.073c0.579,0,1.065-0.471,1.065-1.073v-2.211
		c0.935-0.201,1.939-0.245,3.094-0.245c5.85,0,9.409,2.15,9.409,2.15v20.504l-12.503,1.859V315.3c0-0.57-0.486-1.039-1.065-1.039
		c-0.586,0-0.995,0.469-0.995,1.039v3.69l-3.942,0.545V296.279z M17.485,396.318l137.833-70.252l63.941-9.506l48.268,10.991
		l4.39,1.028l1.141,0.27l5.637,1.268l-0.015,0.023l115.765,27.281L17.485,396.318z M84.638,639.309
		c-0.689,1.041-1.687,1.936-2.813,2.803c-6.305,4.895-18.655,8.099-32.812,8.099c-20.591,0-37.239-6.87-37.239-15.341
		c0-8.447,16.648-15.377,37.239-15.377c5.164,0,10.048,0.477,14.598,1.204c1.563,0.345,3.086,0.686,4.589,1.034v2.486
		c-1.741-0.455-3.627-0.803-5.705-1.133c-3.904-0.565-8.287-0.881-12.901-0.881c-16.175,0-29.278,3.984-29.278,8.954
		c0,4.955,13.103,8.954,29.278,8.954c8.66,0,16.335-1.133,21.681-2.969c4.696-1.553,7.516-3.681,7.516-5.985
		c0-2.067-2.273-3.953-6.063-5.448v-2.689c6.635,2.263,11.253,5.413,12.848,9.029c0.412,0.924,0.653,1.9,0.653,2.82
		C86.229,636.399,85.672,637.881,84.638,639.309 M58.603,630.685c-21.454-3.448-32.045,0.388-34.794,1.584
		c-0.267-0.423-0.444-0.756-0.444-1.183c0-3.85,11.895-7.015,26.451-7.015c4.976,0,9.562,0.354,13.525,1.059
		c1.833,0.237,3.356,0.579,4.859,0.934v6.383v3.666c-4.788,1.274-11.26,1.979-18.385,1.979c-8.603,0-16.296-1.08-21.077-2.757
		c5.008-3.896,24.821-2.597,28.792-2.816C61.657,632.301,58.603,630.685,58.603,630.685 M72.729,627.602
		c2.185,1.08,3.453,2.22,3.453,3.484c0,1.282-1.268,2.426-3.453,3.488V627.602z M111.796,638.282l-24.452,0.948
		c0.735-1.304,1.154-2.664,1.154-4.021c0-1.62-0.607-3.226-1.545-4.688l1.805-2.089l8.297-12.475
		c4.958,7.186,10.059,13.928,15.451,20.232L111.796,638.282z M152.97,681.801l-33.839,3.292l10.404-13.163l5.889-13.263
		c6.326,5.257,12.837,9.935,19.578,14.04L152.97,681.801z M202.921,714.266l-30.507,3.786l6.074-15.455l2.33-17.053
		c7.448,2.842,15.011,5.059,22.697,6.664L202.921,714.266z M225.771,731.41l4.454-15.326l0.292-21.035
		c0.494,0,0.923,0.036,1.385,0.036c7.665,0,15.213-0.735,22.768-2.121l2.593,18.872l6.812,15.092L225.771,731.41z M231.901,640.46
		c-101.685,0.345-154.8-114.166-148.783-247.861l13.359-1.577c-2.945,10.951,0.614,19.387,0.579,20.059l76.203-6.454
		c-2.465,0.855-5.818,2.337-9.136,4.66l-67.234,6.29c-0.266,4.156-0.302,8.361-0.302,12.592c0,29.474,4.585,57.402,12.567,82.728
		c-1.385,2.935-2.174,6.816-1.115,11.732c1.175,5.374,5.118,10.03,10.716,13.692c4.927,11.249,10.518,21.678,16.626,31.364
		l8.631-18.403c1.854,1.229,1.393,0.889,2.622,1.609l-8.482,20.936c0,0-2.145,8.24,5.953,16.545
		c3.414,3.552,6.202,3.665,8.145,2.912l13.125-31.612c0.799,0.26,1.684,0.49,2.614,0.725l-13.305,32.823
		c23.421,25.982,51.527,41.434,79.599,41.551c17.831,0.1,35.203-6.628,51.279-18.193c7.225-5.203,14.068-11.369,20.676-18.335
		C284.797,624.65,259.251,640.367,231.901,640.46 M309.539,682.564l-25.694,1.413c7.416-3.25,14.638-7.171,21.702-11.757
		L309.539,682.564z M299.274,729.119l-15.977,2.092l4.61-3.584l21.266-1.641L299.274,729.119z M322.031,721.678l-27.098,2.952
		l-5.587,0.582l-2.426,0.281v-21.617l-2.849-17.302l26.434-1.385l4.12,10.531l9.583,15.941L322.031,721.678z M359.572,707.012
		l-27.492,2.291l11.477-8.674l28.476-2.397L359.572,707.012z M340.775,693.443c1.428,0.362,2.898,0.768,4.439,1.154
		c0.994,0.203,1.975,0.381,2.998,0.565c3.005,0.558,6.244,1.059,9.59,1.343l-14.627,1.065L340.775,693.443z M416.658,674.153
		c0,10.876-21.57,19.652-48.171,19.652c-6.038,0-11.732-0.387-17.05-1.268c-1.059-0.132-2.103-0.33-3.076-0.505
		c-16.559-3.146-28.003-9.991-28.003-17.88c0-10.897,21.489-19.731,48.129-19.731c5.388,0,10.681,0.42,15.558,1.073
		c1.133,0.131,2.227,0.348,3.353,0.55c3.854,0.629,7.466,1.535,10.755,2.583v3.658c-3.708-1.265-8.258-2.259-13.447-2.962
		c-1.083-0.199-2.241-0.281-3.389-0.384c-3.936-0.434-8.112-0.629-12.478-0.629c-21.01,0-38.038,4.909-38.038,11.025
		c0,5.342,13.32,9.774,30.977,10.716c1.232,0.117,2.337,0.117,3.605,0.228c1.144,0,2.248,0.043,3.456,0.043
		c11.746,0,22.331-1.581,29.313-3.968c1.809-0.622,3.36-1.364,4.653-2.103v-3.744v-0.913v-0.167v-2.596
		c0.761,0.401,1.733,1.176,2.337,2.504c0,0,0.377,0.824,1.141,0.536c0.664-0.234-0.28-3.154-3.478-5.413v-0.078v-4.046
		C411.284,663.877,416.658,668.732,416.658,674.153 M389.667,653.098l-1.196,0.05l-0.732-2.391l-5.043-15.952l-13.473-24.661
		l28.93-0.97v26.854v5.52v11.106L389.667,653.098z M398.152,654.909v1.431c-1.498-0.43-2.938-0.877-4.603-1.203L398.152,654.909z
		 M378.074,667.031c-0.782-0.263-1.819-0.426-3.226-0.539c-1.549-0.153-3.392-0.292-5.53-0.292c-15.443,0-28.391,2.896-31.712,6.763
		c-1.812-1.111-2.756-2.233-2.756-3.47c0-4.877,15.216-8.876,33.988-8.876c3.74,0,7.306,0.174,10.663,0.451
		c1.235,0.063,2.387,0.195,3.456,0.302c6.286,0.806,11.571,2.067,15.194,3.58v9.025c-5.956,2.646-16.836,4.337-29.313,4.337
		c-0.501,0-0.97,0-1.475,0c-1.222,0-2.479,0-3.658-0.067c-6.546-0.234-12.488-1.005-17.276-2.071
		c-1.957-0.692-3.101-1.478-3.101-2.262c0-2.618,12.946-4.855,29.392-5.055c0.796,0,1.563,0,2.387,0c0.505,0,0.959,0,1.393-0.054
		C380.585,668.662,381.004,667.675,378.074,667.031 M414.332,664.74c-2.849-2.547-6.713-4.838-11.526-6.748v-3.254l20.602-0.682
		L414.332,664.74z M420.565,627.602l5.009,23.596l-22.769,1.211V634.4v-5.829v-19.554l3.786-0.12l2.408-0.078l4.632,7.594
		L420.565,627.602z M450.117,611.373l-32.904,0.948l7.526-15.252l34.091-0.486L450.117,611.373z M450.43,573.371l8.17,20.754
		l-32.643,0.241l-2.866-4.511l-8.759-13.817l-11.526-13.33v43.241l0.071,0.437h-0.071v-0.437l-4.653-3.688v4.228l-30.454,0.771
		c4.675-7.285,9.107-14.943,13.331-22.896l16.431,17.294l0.692,0.604V557.28l4.653,5.428l0.121-6.01l34.138,1.445L450.43,573.371z
		 M476.019,545.076l-32.558-0.689h-0.12l5.157-18.268l0.159-0.621l31.367,2.415L476.019,545.076z M463.881,509.024l14.566,15.536
		l-29.218-1.453h-0.572l-2.589-2.561l-10.951-11.008l-19.592-12.407l37.831,3.943L463.881,509.024z M469.298,477.519l-11.811-2.248
		l2.8-1.595l17.997,3.292L469.298,477.519z M491.419,475.881l-32.524-4.315l2.213-19.212l33.296,5.505L491.419,475.881z
		 M476.104,445.353l14.022,8.88l-29.019-4.334l-15.451-11.863l15.987,2.135L476.104,445.353z"/>
	<polygon fill="#FAF8F8" points="347.63,394.396 352.61,394.013 355.693,389.239 350.728,389.683 	"/>
	<polygon fill="#FAF8F8" points="30.443,486.117 30.55,452.2 28.973,451.97 26.209,451.273 26.117,489.623 27.012,488.447 	"/>
	<path fill="#FAF8F8" d="M42.342,405.023l-3.673,4.582h3.595C42.264,408.046,42.264,406.526,42.342,405.023"/>
	<polygon fill="#FAF8F8" points="15.88,502.887 20.956,523.107 25.971,524.457 26.117,489.623 	"/>
	<polygon fill="#FAF8F8" points="38.669,409.605 37.412,409.605 11.653,425.767 12.087,447.753 26.209,451.273 26.245,424.531 	"/>
	<path fill="#FAF8F8" d="M342.203,533.582c1.534-4.216,3.125-8.492,4.585-12.829l-0.849-113.814l-4.695,0.408L342.203,533.582z"/>
	<polygon fill="#FAF8F8" points="123.88,34.753 102.597,43.57 102.597,94.94 123.88,87.457 	"/>
	<polygon fill="#FAF8F8" points="123.88,270.646 102.597,275.119 102.597,328.961 123.88,325.519 	"/>
	<polygon fill="#FAF8F8" points="123.88,212.049 102.597,217.51 102.597,270.233 123.88,265.792 	"/>
	<polygon fill="#FAF8F8" points="123.88,92.34 102.597,99.819 102.597,153.215 123.88,146.708 	"/>
	<polygon fill="#FAF8F8" points="123.88,151.578 102.597,158.078 102.597,212.623 123.88,207.199 	"/>
	<polygon fill="#FAF8F8" points="97.582,218.792 79.442,223.472 79.442,275.119 97.582,271.254 	"/>
	<polygon fill="#FAF8F8" points="97.582,159.647 79.442,165.222 79.442,218.57 97.582,213.916 	"/>
	<polygon fill="#FAF8F8" points="97.582,276.181 79.442,279.975 79.442,332.781 97.582,329.787 	"/>
	<polygon fill="#FAF8F8" points="97.582,101.618 79.442,108.047 79.442,160.335 97.582,154.753 	"/>
	<polygon fill="#FAF8F8" points="97.582,45.615 79.442,53.193 79.442,103.138 97.582,96.747 	"/>
	<polygon fill="#FAF8F8" points="74.384,224.724 53.936,229.997 53.936,280.472 74.384,276.129 	"/>
	<polygon fill="#FAF8F8" points="74.384,109.754 53.936,116.98 53.936,168.152 74.384,161.844 	"/>
	<polygon fill="#FAF8F8" points="74.384,281.047 53.936,285.343 53.936,336.96 74.384,333.616 	"/>
	<polygon fill="#FAF8F8" points="74.384,55.274 53.936,63.758 53.936,112.117 74.384,104.849 	"/>
	<polygon fill="#FAF8F8" points="74.384,166.75 53.936,173.014 53.936,225.085 74.384,219.867 	"/>
	<polygon fill="#FAF8F8" points="156.7,263.744 128.913,269.592 128.913,324.693 156.7,320.138 	"/>
	<path fill="#FAF8F8" d="M162.283,329.231l25.091,43.129l22.107-50.189L162.283,329.231z M175.156,330.545v14.435l-7.743-13.281
		L175.156,330.545z M186.991,365.313l-2.337-4.06v-2.122c0-0.563-0.486-1.005-1.065-1.005c-0.228,0-0.419,0.048-0.653,0.232
		l-4.284-7.505v-20.807l3.942-0.602v20.889c0,0.562,0.409,1.076,0.995,1.076c0.579,0,1.065-0.514,1.065-1.076v-21.179l12.503-1.868
		v14.931L186.991,365.313z"/>
	<path fill="#FAF8F8" d="M37.245,391.075l145.49-15.419l-73.383-21.418L37.245,391.075z M74.384,375.682l5.058-2.564v10.265
		l-5.058,0.564V375.682z M97.582,363.843l5.015-2.59v19.656l-5.015,0.565V363.843z M123.88,361.8l5.033,1.449v14.879l-5.033,0.539
		V361.8z M156.7,375.181v-3.806l9.491,2.826L156.7,375.181z"/>
	<path fill="#FAF8F8" d="M266.61,331.664l-47.518-10.821l-5.058,0.698l-20.999,47.654L266.61,331.664z M220.002,324.359l1.222,2.776
		c0,0,6.106-0.288,12.172,0.232l7.938,1.787c0.135,0.615,1.055,5.939,5.243,9.066l-7.011,3.529
		c-7.431-6.454-16.495-10.414-26.309-10.57l0.323-0.669l4.148-1.828c0,0-0.853-2.667-1.357-4.251l2.586-0.4L220.002,324.359z"/>
	<path fill="#FAF8F8" d="M158.106,329.815l-1.527,0.231l-42.161,21.594l68.044,19.864L158.106,329.815z M175.61,366.19
		l-18.911-5.566v-26.895L175.61,366.19z M123.88,350.396l5.033-2.564v4.675l-5.033-1.444V350.396z"/>
	<path fill="#FAF8F8" d="M272.422,332.96l-81.854,41.882l181.244-19.242L272.422,332.96z M247.267,349.454l15.31-7.829
		c2.408,4.179,4.578,8.708,6.372,13.492c0.931,2.542,1.736,5.186,2.437,7.942l-16.332,1.662
		C253.057,359.131,250.457,354.009,247.267,349.454 M287.34,339.681l4.142,0.913c3.559,5.884,6.422,12.37,8.425,19.394l-3.136,0.316
		C294.571,352.78,291.364,345.843,287.34,339.681 M311.17,345.037l41.124,9.421l-36.535,3.9
		C314.555,353.739,313.006,349.354,311.17,345.037"/>
	<path fill="#FAF8F8" d="M154.242,386.198c-1.052,0-1.879,0.657-1.879,1.436c0,0.788,0.828,1.413,1.879,1.413
		c1.016,0,1.833-0.625,1.833-1.413C156.075,386.855,155.258,386.198,154.242,386.198"/>
	<path fill="#FAF8F8" d="M258.782,488.359c0.902-0.611,1.016-1.755,0.469-2.362c-0.469-0.689-1.602-0.742-2.394-0.082
		c-0.828,0.59-1.073,1.723-0.498,2.395C256.857,488.974,257.962,489.006,258.782,488.359"/>
	<path fill="#FAF8F8" d="M257.962,493.157c0.12,0.217,0.28,0.355,0.571,0.54c-0.291,0.703-0.092,1.542,0.438,2.178
		c0.785,1.133,2.361,1.35,3.293,0.561c1.115-0.806,1.239-2.298,0.383-3.402c-0.434-0.408-0.859-0.689-1.314-0.82
		c0.015-0.516-0.113-0.955-0.461-1.35c-0.622-0.842-1.83-1.002-2.629-0.384C257.426,491.141,257.283,492.344,257.962,493.157"/>
	<path fill="#FAF8F8" d="M159.708,428.072c-1.389,0.643-1.864,2.426-1.197,4.074c0.767,1.573,2.455,2.415,3.797,1.775
		c1.325-0.614,1.85-2.404,1.119-4.035C162.724,428.274,161.033,427.472,159.708,428.072"/>
	<path fill="#FAF8F8" d="M164.514,434.093c-0.739,0.579-0.774,1.84-0.05,2.738c0.746,0.938,1.975,1.222,2.749,0.586
		c0.774-0.586,0.796-1.829,0.032-2.745C166.56,433.72,165.374,433.464,164.514,434.093"/>
	<path fill="#FAF8F8" d="M165.711,440.617c-0.898,0.707-0.636,2.401,0.462,3.794c1.122,1.491,2.688,2.096,3.605,1.413
		c0.895-0.682,0.717-2.411-0.434-3.871C168.212,440.528,166.588,439.957,165.711,440.617"/>
	<path fill="#FAF8F8" d="M189.903,453.426c0.643-0.444,0.643-1.456,0.05-2.213c-0.625-0.738-1.531-0.909-2.163-0.508
		c-0.593,0.508-0.593,1.463-0.043,2.205C188.422,453.649,189.313,453.866,189.903,453.426"/>
	<path fill="#FAF8F8" d="M199.032,453.773c0.497-0.472,0.533-1.289,0.089-1.949c-0.558-0.629-1.424-0.807-1.964-0.334
		c-0.508,0.348-0.508,1.246-0.021,1.921C197.586,453.983,198.414,454.122,199.032,453.773"/>
	<path fill="#FAF8F8" d="M222.286,465.314c0.455-0.342,0.387-1.126-0.103-1.755c-0.522-0.636-1.271-0.839-1.762-0.568
		c-0.437,0.348-0.305,1.158,0.142,1.833C221.089,465.46,221.856,465.669,222.286,465.314"/>
	<path fill="#FAF8F8" d="M239.438,471.189c0.362-0.217,0.384-0.743,0.092-1.091c-0.263-0.377-0.789-0.437-1.073-0.217
		c-0.312,0.295-0.397,0.788-0.1,1.154C238.639,471.374,239.137,471.526,239.438,471.189"/>
	<path fill="#FAF8F8" d="M232.491,473.778c1.101-1.133,0.753-3.183-0.71-4.536c-1.406-1.413-3.538-1.566-4.585-0.493
		c-1.048,1.211-0.792,3.196,0.7,4.585C229.344,474.702,231.439,474.933,232.491,473.778"/>
	<path fill="#FAF8F8" d="M185.35,396.169c0.643,0,1.169-0.401,1.169-0.878c0-0.554-0.526-0.938-1.169-0.938
		c-0.65,0-1.222,0.384-1.222,0.938C184.128,395.768,184.7,396.169,185.35,396.169"/>
	<path fill="#FAF8F8" d="M160.259,397.018c-0.483,0-0.895,0.355-0.895,0.71c0,0.416,0.412,0.722,0.895,0.722
		c0.476,0,0.909-0.306,0.909-0.722C161.168,397.373,160.735,397.018,160.259,397.018"/>
	<path fill="#FAF8F8" d="M196.46,395.533c0.568,0,1.065-0.37,1.065-0.842c0-0.473-0.497-0.835-1.065-0.835
		c-0.575,0-1.051,0.362-1.051,0.835C195.409,395.163,195.885,395.533,196.46,395.533"/>
	<path fill="#FAF8F8" d="M210.263,407.531c0.813,0,1.46-0.479,1.46-1.104c0-0.572-0.646-1.055-1.46-1.055
		c-0.781,0-1.495,0.482-1.495,1.055C208.768,407.052,209.481,407.531,210.263,407.531"/>
	<path fill="#FAF8F8" d="M204.999,404.98c-0.106-0.085-0.22-0.092-0.302-0.092c-0.629,0-1.112,0.401-1.112,0.966
		c0,0.529,0.483,0.931,1.112,0.931c0.497,0,0.944-0.358,1.012-0.76c0.412-0.1,0.692-0.32,0.692-0.653
		c0-0.366-0.359-0.679-0.76-0.679C205.357,404.693,205.162,404.796,204.999,404.98"/>
	<path fill="#FAF8F8" d="M203.926,401.045c0.667,0,1.268-0.404,1.268-0.877c0-0.529-0.601-0.927-1.268-0.927
		c-0.693,0-1.187,0.397-1.187,0.927C202.74,400.641,203.233,401.045,203.926,401.045"/>
	<path fill="#FAF8F8" d="M191.107,397.688c0.139,0.395,0.494,0.629,0.995,0.629c0.579,0,1.047-0.345,1.047-0.842
		c0-0.252-0.177-0.536-0.469-0.714c0,0,0-0.039,0-0.103c0-0.607-0.611-1.076-1.346-1.076c-0.768,0-1.382,0.469-1.382,1.076
		C189.953,397.16,190.479,397.564,191.107,397.688"/>
	<path fill="#FAF8F8" d="M177.109,393.896c0.575,0,1.129-0.419,1.129-0.984c0-0.489-0.554-0.909-1.129-0.909
		c-0.583,0-1.154,0.42-1.154,0.909C175.955,393.477,176.527,393.896,177.109,393.896"/>
	<path fill="#FAF8F8" d="M115,517.048c0.554,0,0.938-0.696,0.938-1.648c0-0.94-0.384-1.673-0.938-1.673
		c-0.504,0-0.991,0.732-0.991,1.673C114.009,516.352,114.496,517.048,115,517.048"/>
	<path fill="#FAF8F8" d="M122.168,531.998c0.806,0,1.399-0.7,1.399-1.623c0-0.917-0.593-1.659-1.399-1.659
		c-0.714,0-1.318,0.742-1.318,1.659C120.85,531.298,121.454,531.998,122.168,531.998"/>
	<path fill="#FAF8F8" d="M125.94,531.998c0.398,0,0.778-0.555,0.778-1.172c0-0.742-0.38-1.265-0.778-1.265
		c-0.412,0-0.803,0.522-0.803,1.265C125.137,531.443,125.528,531.998,125.94,531.998"/>
	<path fill="#FAF8F8" d="M183.588,409.854c-0.586,0-0.995,0.465-0.995,1.098v1.847c0,0.604,0.409,1.03,0.995,1.03
		c0.579,0,1.065-0.427,1.065-1.03v-1.847C184.653,410.319,184.167,409.854,183.588,409.854"/>
	<path fill="#FAF8F8" d="M183.588,414.979c-0.586,0-0.995,0.43-0.995,1.03v0.898c0,0.59,0.409,1.084,0.995,1.084
		c0.579,0,1.065-0.494,1.065-1.084v-0.898C184.653,415.409,184.167,414.979,183.588,414.979"/>
	<path fill="#FAF8F8" d="M183.588,419.206c-0.586,0-0.995,0.544-0.995,1.116v0.955c0,0.575,0.409,1.016,0.995,1.016
		c0.579,0,1.065-0.44,1.065-1.016v-0.955C184.653,419.75,184.167,419.206,183.588,419.206"/>
	<path fill="#FAF8F8" d="M183.588,308.83c0.579,0,1.065-0.481,1.065-1.021V301.3c0-0.56-0.486-1.069-1.065-1.069
		c-0.586,0-0.995,0.51-0.995,1.069v6.509C182.593,308.349,183.002,308.83,183.588,308.83"/>
</g>
</svg>
