<?xml version="1.0" encoding="utf-8"?>
<!-- Generator: Adobe Illustrator 16.0.0, SVG Export Plug-In . SVG Version: 6.00 Build 0)  -->
<!DOCTYPE svg PUBLIC "-//W3C//DTD SVG 1.1//EN" "http://www.w3.org/Graphics/SVG/1.1/DTD/svg11.dtd">
<svg version="1.1" id="Capa_1" xmlns="http://www.w3.org/2000/svg" xmlns:xlink="http://www.w3.org/1999/xlink" x="0px" y="0px"
	 width="792px" height="612px" viewBox="0 0 792 612" enable-background="new 0 0 792 612" xml:space="preserve">
<g>
	<g>
		<path fill="#FFFFFF" d="M147.148,246.15c0-22.671,16.309-33.412,35.796-33.412c12.329,0,26.839,5.18,37.179,15.917v27.233h13.929
			V201.22h-13.929v11.132c-10.34-10.748-24.455-13.331-36.773-13.331c-27.25,0-50.124,14.719-50.124,47.129
			c0,62.648,92.27,29.827,92.27,82.726c0,22.876-16.502,33.606-36.185,33.606c-17.508,0-37.382-8.529-50.324-24.464v-23.47h-13.907
			v55.103h13.907v-11.934c14.728,12.129,33.409,18.682,50.324,18.682c27.245,0,50.114-15.109,50.114-47.523
			C239.426,265.629,147.148,295.862,147.148,246.15z"/>
		<path fill="#FFFFFF" d="M401.651,281.744c13.14-8.168,19.797-20.982,19.797-38.167c0-45.221-42.381-45.221-67.697-45.221h-46.414
			h-1.185h-56.234v19.63h18.884v134.884h-18.884v19.63h107.815c42.644,0,67.096-18.377,67.096-50.364
			C424.829,303.431,417.031,289.869,401.651,281.744z M343.687,217.985h10.064c24.32,0,48.055,1.967,48.055,25.591
			c0,19.339-16.161,29.147-48.055,29.147h-10.064V217.985z M324.049,217.985v12.832h-35.598v-12.832H324.049z M288.451,241.185
			h35.598v6.5h-35.598V241.185z M288.451,352.869v-94.836h35.598v94.836H288.451z M357.733,352.869h-14.047v-60.305h14.047
			c31.493,0,47.459,9.943,47.459,29.571C405.192,348.867,375.464,352.869,357.733,352.869z"/>
		<path fill="#FFFFFF" d="M493.192,255.888c-31.42,0-56.879,25.463-56.879,56.875c0,31.425,25.459,56.889,56.879,56.889
			c19.492,0,36.796-9.954,47.138-25.068l-12.531-6.564c-7.771,10.74-20.496,17.694-34.606,17.694
			c-23.263,0-42.358-18.486-42.962-41.553h99.834C550.064,281.352,524.617,255.888,493.192,255.888z M493.192,269.811
			c19.28,0,35.586,12.92,40.974,30.427h-82.138C457.396,282.731,473.894,269.811,493.192,269.811z"/>
		<g>
			<path fill="#FFFFFF" d="M618.902,355.713c-23.658,0-42.952-19.278-42.952-42.95c0-23.667,19.294-42.952,42.952-42.952
				c15.319,0,29.053,8.358,36.596,20.689v-21.089c-9.935-8.343-22.664-13.523-36.596-13.523c-31.42,0-56.861,25.463-56.861,56.875
				c0,31.425,25.441,56.889,56.861,56.889c19.695,0,36.996-9.954,47.139-25.269l-12.532-6.159
				C645.563,348.759,633.037,355.713,618.902,355.713z"/>
			<rect x="655.498" y="256.003" fill="#FFFFFF" width="13.922" height="34.454"/>
		</g>
	</g>
	<g>
		<path fill="#FFFFFF" d="M127.866,405.267c0.316,4.281,3.316,5.129,4.82,5.129c2.546,0,4.748-2.006,4.748-4.543
			c0-3.159-2.704-3.893-6.367-5.244c-2.235-0.729-7.202-2.39-7.202-7.746c-0.039-5.321,4.508-8.203,8.979-8.203
			c3.662,0,8.245,1.996,8.597,7.854h-4.472c-0.312-1.54-0.997-4.012-4.282-4.012c-2.31,0-4.313,1.584-4.313,4.012
			c0,2.775,2.117,3.471,6.71,5.165c3.539,1.506,6.864,3.316,6.864,7.941c0,4.624-3.133,8.633-9.217,8.633
			c-5.67,0-9.288-3.468-9.367-8.985H127.866z"/>
		<path fill="#FFFFFF" d="M145.018,385.192h4.006v4.235h-4.006V385.192z M145.018,392.742h4.006v20.967h-4.006V392.742z"/>
		<path fill="#FFFFFF" d="M162.741,398.219c0-1.622-1-2.851-3.043-2.816c-1.965,0-3.042,1.312-3.008,2.7
			c0.078,1.656,1.588,2.429,3.813,3.046c3.203,0.884,6.715,1.806,6.824,6.321c0.08,4.081-3.309,6.857-7.47,6.857
			c-3.316,0-7.439-1.89-7.632-6.667h3.963c0.16,2.544,2.204,3.389,3.698,3.389c1.936,0,3.442-1.347,3.442-3.118
			c-0.043-2.078-1.627-2.775-5.358-4.009c-2.933-0.886-5.245-2.276-5.288-5.433c0-3.969,3.237-6.357,7.06-6.357
			c2.889,0,6.664,1.424,6.976,6.087H162.741z"/>
		<path fill="#FFFFFF" d="M172.18,395.865h-3.782v-3.123h3.782v-7.55h4.007v7.55h4.05v3.123h-4.05v17.844h-4.007V395.865z"/>
		<path fill="#FFFFFF" d="M184.017,404.499c0.188,4.238,3.886,6.398,7.043,6.398c2.821,0,4.899-1.35,6.051-3.546h4.168
			c-1.004,2.317-2.467,4.043-4.243,5.204c-1.769,1.192-3.85,1.771-5.976,1.771c-6.854,0-11.091-5.513-11.091-11.062
			c0-6.013,4.695-11.134,11.055-11.134c3.007,0,5.744,1.114,7.75,3.082c2.462,2.508,3.504,5.78,3.162,9.285H184.017z
			 M197.958,401.378c-0.186-2.775-2.961-5.901-6.934-5.819c-4.086,0-6.741,2.967-6.932,5.819H197.958z"/>
		<path fill="#FFFFFF" d="M205.083,392.742h3.78v2.971c0.878-1.771,3.307-3.581,6.36-3.581c1.931,0,3.937,0.574,5.399,2.229
			c0.534,0.541,1.115,1.658,1.337,2.047c0.353-0.618,0.777-1.352,1.511-2.085c1.347-1.347,3.275-2.191,5.554-2.191
			c1.919,0,4.082,0.535,5.631,2.119c1.844,1.887,2.307,3.891,2.307,7.899v11.559h-4.014v-11.404c0-1.735-0.225-3.469-1.156-4.67
			c-0.729-1.077-1.854-1.733-3.734-1.733c-1.784,0-3.275,0.738-4.052,2.006c-0.845,1.311-0.961,2.464-0.961,4.243v11.559h-4.047
			V402.15c0.041-1.74-0.154-3.005-0.852-4.168c-0.763-1.229-1.999-2.037-3.963-2.081c-1.89-0.036-3.272,0.889-3.973,2.047
			c-0.772,1.115-1.11,2.583-1.11,4.276v11.484h-4.016V392.742z"/>
		<path fill="#FFFFFF" d="M262.657,413.709h-4.011v-3.656c-1.463,2.812-4.465,4.274-7.784,4.274
			c-6.746,0-10.752-5.242-10.752-11.103c0-6.392,4.666-11.093,10.752-11.093c4.164,0,6.823,2.307,7.784,4.312v-3.702h4.011V413.709z
			 M244.115,403.302c0.043,3.123,2.24,7.289,7.323,7.289c3.21,0,5.474-1.776,6.521-4.166c0.463-0.961,0.686-2.039,0.724-3.123
			c0.043-1.077-0.147-2.153-0.613-3.118c-1.004-2.426-3.345-4.318-6.71-4.318c-4.393,0-7.246,3.469-7.246,7.4V403.302z"/>
		<path fill="#FFFFFF" d="M277.867,385.192h4.542v28.517h-4.542V385.192z"/>
		<path fill="#FFFFFF" d="M287.039,392.742h3.782v3.241c0.997-2.157,3.348-3.893,7.086-3.852c6.708,0.072,8.479,4.933,8.479,9.282
			v12.295h-4.045v-11.365c0-3.777-1.463-6.479-5.551-6.442c-3.93,0.044-5.735,2.511-5.735,6.131v11.677h-4.016V392.742z"/>
		<path fill="#FFFFFF" d="M311.197,395.865h-2.853v-3.123h2.853v-1.427c0-6.313,4.897-6.625,7.866-6.656v3.151
			c-1.356,0.044-3.856,0.044-3.856,3.698v1.233h3.856v3.123h-3.856v17.844h-4.009V395.865z"/>
		<path fill="#FFFFFF" d="M319.097,403.19c0-5.59,4.12-11.059,11.18-11.059c7.048,0,11.18,5.469,11.18,11.093
			c0,5.631-4.132,11.066-11.18,11.066c-7.06,0-11.18-5.436-11.18-11.066V403.19z M323.108,403.266c0,4.161,3.152,7.284,7.168,7.284
			c4.007,0,7.164-3.123,7.164-7.325c0-4.197-3.157-7.323-7.164-7.323c-4.016,0-7.168,3.126-7.168,7.323V403.266z"/>
		<path fill="#FFFFFF" d="M344.763,392.742h3.77v3.084c1.192-2.466,3.394-3.658,6.251-3.694v4.006h-0.273
			c-3.777,0-5.747,2.081-5.747,6.242v11.329h-4.002V392.742z"/>
		<path fill="#FFFFFF" d="M357.167,392.742h3.775v2.971c0.886-1.771,3.313-3.581,6.362-3.581c1.923,0,3.932,0.574,5.394,2.229
			c0.534,0.541,1.118,1.658,1.352,2.047c0.35-0.618,0.763-1.352,1.499-2.085c1.349-1.347,3.278-2.191,5.554-2.191
			c1.919,0,4.082,0.535,5.626,2.119c1.847,1.887,2.31,3.891,2.31,7.899v11.559h-4.012v-11.404c0-1.735-0.222-3.469-1.158-4.67
			c-0.724-1.077-1.844-1.733-3.736-1.733c-1.771,0-3.273,0.738-4.045,2.006c-0.849,1.311-0.963,2.464-0.963,4.243v11.559h-4.047
			V402.15c0.043-1.74-0.152-3.005-0.843-4.168c-0.777-1.229-2.01-2.037-3.973-2.081c-1.885-0.036-3.275,0.889-3.965,2.047
			c-0.775,1.115-1.12,2.583-1.12,4.276v11.484h-4.009V392.742z"/>
		<path fill="#FFFFFF" d="M414.735,413.709h-4.004v-3.656c-1.468,2.812-4.47,4.274-7.788,4.274c-6.742,0-10.753-5.242-10.753-11.103
			c0-6.392,4.663-11.093,10.753-11.093c4.163,0,6.818,2.307,7.788,4.312v-3.702h4.004V413.709z M396.202,403.302
			c0.029,3.123,2.228,7.289,7.316,7.289c3.197,0,5.477-1.776,6.514-4.166c0.461-0.961,0.7-2.039,0.734-3.123
			c0.043-1.077-0.159-2.153-0.615-3.118c-1.007-2.426-3.355-4.318-6.705-4.318c-4.4,0-7.244,3.469-7.244,7.4V403.302z
			 M408.496,382.687l1.348,2.931l-9.326,4.699l-1.241-2.462L408.496,382.687z"/>
		<path fill="#FFFFFF" d="M420.743,395.865h-3.779v-3.123h3.779v-7.55h4.007v7.55h4.045v3.123h-4.045v17.844h-4.007V395.865z"/>
		<path fill="#FFFFFF" d="M431.03,385.192h4.011v4.235h-4.011V385.192z M431.03,392.742h4.011v20.967h-4.011V392.742z"/>
		<path fill="#FFFFFF" d="M460.165,406.348c-1.27,4.55-5.402,7.979-10.642,7.979c-6.859,0-11.209-5.281-11.209-11.103
			c0-6.203,4.737-11.093,11.016-11.093c5.011,0,9.521,3.082,10.835,8.129h-4.12c-1.091-2.814-3.713-4.396-6.561-4.396
			c-2.117-0.039-3.659,0.654-5.127,2.042c-1.23,1.238-2.046,3.198-2.046,5.317c0,4.32,3.171,7.366,7.173,7.366
			c3.51-0.041,5.701-2.16,6.561-4.243H460.165z"/>
		<path fill="#FFFFFF" d="M462.081,403.19c0-5.59,4.122-11.059,11.18-11.059c7.056,0,11.18,5.469,11.18,11.093
			c0,5.631-4.124,11.066-11.18,11.066c-7.058,0-11.18-5.436-11.18-11.066V403.19z M466.093,403.266c0,4.161,3.154,7.284,7.168,7.284
			c4.004,0,7.166-3.123,7.166-7.325c0-4.197-3.162-7.323-7.166-7.323c-4.014,0-7.168,3.126-7.168,7.323V403.266z"/>
		<path fill="#FFFFFF" d="M519.58,413.709h-3.859v-3.656c-1.158,2.157-3.507,4.274-7.819,4.274c-6.595,0-10.761-5.088-10.761-11.137
			c0-6.512,4.707-11.059,10.686-11.059c4.27,0,6.896,2.389,7.74,4.04v-3.697v-7.282h4.014V413.709z M501.15,403.225
			c0.046,3.856,2.739,7.366,7.363,7.366c2.047,0,3.93-0.845,5.242-2.201c1.35-1.347,2.112-3.196,2.045-5.276
			c0-2.08-0.813-3.896-2.119-5.165c-1.313-1.309-3.121-2.083-5.168-2.083c-4.431,0-7.363,3.391-7.363,7.325V403.225z"/>
		<path fill="#FFFFFF" d="M526.698,404.499c0.193,4.238,3.9,6.398,7.055,6.398c2.817,0,4.893-1.35,6.046-3.546h4.166
			c-0.999,2.317-2.462,4.043-4.233,5.204c-1.778,1.192-3.861,1.771-5.979,1.771c-6.861,0-11.093-5.513-11.093-11.062
			c0-6.013,4.694-11.134,11.057-11.134c3.003,0,5.737,1.114,7.745,3.082c2.465,2.508,3.512,5.78,3.162,9.285H526.698z
			 M540.648,401.378c-0.186-2.775-2.964-5.901-6.932-5.819c-4.084,0-6.741,2.967-6.937,5.819H540.648z"/>
		<path fill="#FFFFFF" d="M558.488,385.192h8.52c2.696,0,4.66,0.54,6.049,1.537c2.08,1.274,2.894,3.51,2.894,5.783
			c0,3.003-1.578,4.897-3.628,5.977c4.929,1.575,5.207,5.777,5.207,7.052c-0.042,2.812-1.275,5.204-3.474,6.513
			c-2.001,1.385-3.7,1.655-7.21,1.655h-8.357V385.192z M563.035,397.021h3.743c1.036,0,2.076-0.077,2.885-0.464
			c1.429-0.768,1.931-1.998,1.931-3.509c0-1.733-0.927-2.89-1.931-3.351c-0.69-0.343-1.581-0.502-3-0.502h-3.628V397.021z
			 M563.035,409.702h4.588c0.925,0,2.081-0.079,3.044-0.463c1.388-0.613,2.469-1.812,2.505-3.973c0-1.965-1.04-3.307-2.505-3.93
			c-1.125-0.459-2.047-0.5-3.428-0.5h-4.204V409.702z"/>
		<path fill="#FFFFFF" d="M583.264,404.499c0.195,4.238,3.891,6.398,7.055,6.398c2.81,0,4.89-1.35,6.051-3.546h4.161
			c-1.001,2.317-2.472,4.043-4.243,5.204c-1.771,1.192-3.847,1.771-5.969,1.771c-6.859,0-11.103-5.513-11.103-11.062
			c0-6.013,4.702-11.134,11.062-11.134c2.998,0,5.747,1.114,7.748,3.082c2.464,2.508,3.507,5.78,3.164,9.285H583.264z
			 M597.217,401.378c-0.198-2.775-2.967-5.901-6.939-5.819c-4.091,0-6.743,2.967-6.941,5.819H597.217z"/>
		<path fill="#FFFFFF" d="M624.997,406.348c-1.274,4.55-5.401,7.979-10.639,7.979c-6.86,0-11.217-5.281-11.217-11.103
			c0-6.203,4.745-11.093,11.025-11.093c5.006,0,9.52,3.082,10.83,8.129h-4.117c-1.087-2.814-3.712-4.396-6.556-4.396
			c-2.124-0.039-3.661,0.654-5.137,2.042c-1.221,1.238-2.036,3.198-2.036,5.317c0,4.32,3.159,7.366,7.173,7.366
			c3.502-0.041,5.706-2.16,6.556-4.243H624.997z"/>
		<path fill="#FFFFFF" d="M649.462,413.709h-4.01v-3.656c-1.462,2.812-4.47,4.274-7.776,4.274c-6.753,0-10.755-5.242-10.755-11.103
			c0-6.392,4.658-11.093,10.755-11.093c4.161,0,6.818,2.307,7.776,4.312v-3.702h4.01V413.709z M630.923,403.302
			c0.036,3.123,2.237,7.289,7.322,7.289c3.198,0,5.479-1.776,6.52-4.166c0.461-0.961,0.688-2.039,0.731-3.123
			c0.038-1.077-0.154-2.153-0.613-3.118c-1.009-2.426-3.357-4.318-6.71-4.318c-4.388,0-7.25,3.469-7.25,7.4V403.302z"/>
		<path fill="#FFFFFF" d="M663.217,398.219c0-1.622-1.002-2.851-3.044-2.816c-1.962,0-3.046,1.312-3,2.7
			c0.072,1.656,1.574,2.429,3.812,3.046c3.197,0.884,6.7,1.806,6.828,6.321c0.072,4.081-3.324,6.857-7.487,6.857
			c-3.313,0-7.432-1.89-7.63-6.667h3.966c0.159,2.544,2.194,3.389,3.7,3.389c1.926,0,3.435-1.347,3.435-3.118
			c-0.046-2.078-1.619-2.775-5.355-4.009c-2.931-0.886-5.247-2.276-5.284-5.433c0-3.969,3.239-6.357,7.051-6.357
			c2.892,0,6.666,1.424,6.976,6.087H663.217z"/>
	</g>
</g>
</svg>
