<?xml version="1.0" encoding="utf-8"?>
<!-- Generator: Adobe Illustrator 14.0.0, SVG Export Plug-In . SVG Version: 6.00 Build 43363)  -->
<!DOCTYPE svg PUBLIC "-//W3C//DTD SVG 1.1//EN" "http://www.w3.org/Graphics/SVG/1.1/DTD/svg11.dtd">
<svg version="1.1" id="Capa_1" xmlns="http://www.w3.org/2000/svg" xmlns:xlink="http://www.w3.org/1999/xlink" x="0px" y="0px"
	 width="523px" height="228px" viewBox="0 0 523 228" enable-background="new 0 0 523 228" xml:space="preserve">
<g>
	<g>
		<g>
			<rect x="161.908" y="31.968" fill="#6FC1C3" width="34.415" height="125.275"/>
			<path fill="#3F3E3F" d="M34.601,59.086c0-20.616,14.811-30.367,32.513-30.367c11.191,0,24.376,4.717,33.765,14.473v24.729h12.663
				V18.276h-12.663v10.091c-9.389-9.754-22.208-12.095-33.4-12.095c-24.745,0-45.525,13.351-45.525,42.814
				c0,56.884,83.81,27.07,83.81,75.138c0,20.767-14.979,30.52-32.863,30.52c-15.904,0-33.965-7.75-45.717-22.216V121.21h-12.64
				v50.043h12.64v-10.84c13.375,11.026,30.344,16.961,45.717,16.961c24.745,0,45.525-13.715,45.525-43.149
				C118.426,76.773,34.601,104.229,34.601,59.086z"/>
			<path fill="#3F3E3F" d="M265.774,91.411c11.94-7.426,17.987-19.064,17.987-34.668c0-41.084-38.499-41.084-61.496-41.084h-42.16
				h-1.085h-51.069v17.823h17.151v122.517h-17.151v17.845h97.925c38.742,0,60.948-16.692,60.948-45.74
				C286.825,111.104,279.733,98.794,265.774,91.411z M213.121,33.482h9.145c22.094,0,43.656,1.793,43.656,23.261
				c0,17.565-14.685,26.462-43.656,26.462h-9.145V33.482z M195.282,33.482V45.15h-32.33V33.482H195.282z M162.952,54.567h32.33
				v5.897h-32.33V54.567z M162.952,155.999V69.867h32.33v86.132H162.952z M225.877,155.999h-12.756v-54.758h12.756
				c28.607,0,43.113,9.021,43.113,26.862C268.99,152.368,241.986,155.999,225.877,155.999z"/>
			<path fill="#3F3E3F" d="M348.934,67.922c-28.552,0-51.671,23.125-51.671,51.665c0,28.541,23.119,51.666,51.671,51.666
				c17.701,0,33.409-9.056,42.808-22.77l-11.371-5.955c-7.075,9.754-18.629,16.063-31.437,16.063
				c-21.131,0-38.482-16.784-39.03-37.731h90.679C400.582,91.046,377.474,67.922,348.934,67.922z M348.934,80.567
				c17.503,0,32.313,11.75,37.214,27.643h-74.606C316.404,92.316,331.399,80.567,348.934,80.567z"/>
			<g>
				<path fill="#3F3E3F" d="M463.112,158.592c-21.491,0-39.005-17.505-39.005-39.005c0-21.501,17.514-39.02,39.005-39.02
					c13.924,0,26.396,7.598,33.237,18.79V80.204c-9.018-7.565-20.577-12.282-33.237-12.282c-28.53,0-51.65,23.125-51.65,51.665
					c0,28.541,23.12,51.666,51.65,51.666c17.896,0,33.608-9.056,42.824-22.953l-11.387-5.589
					C487.332,152.282,475.954,158.592,463.112,158.592z"/>
				<rect x="496.35" y="68.028" fill="#6FC1C3" width="12.65" height="31.3"/>
			</g>
		</g>
		<g>
			<path fill="#3F3E3F" d="M17.083,203.606c0.292,3.891,3.021,4.657,4.382,4.657c2.311,0,4.312-1.806,4.312-4.134
				c0-2.861-2.458-3.525-5.782-4.763c-2.036-0.654-6.538-2.156-6.538-7.03c-0.043-4.823,4.091-7.456,8.153-7.456
				c3.322,0,7.479,1.826,7.801,7.137h-4.056c-0.286-1.405-0.91-3.643-3.89-3.643c-2.098,0-3.918,1.437-3.918,3.643
				c0,2.526,1.928,3.16,6.092,4.702c3.226,1.359,6.239,3.003,6.239,7.212c0,4.2-2.846,7.821-8.382,7.821
				c-5.143,0-8.423-3.134-8.499-8.146H17.083z"/>
			<path fill="#3F3E3F" d="M32.659,185.372h3.642v3.861h-3.642V185.372z M32.659,192.236h3.642v19.045h-3.642V192.236z"/>
			<path fill="#3F3E3F" d="M48.768,197.211c0-1.477-0.918-2.592-2.772-2.562c-1.791,0-2.753,1.198-2.726,2.45
				c0.061,1.501,1.441,2.207,3.459,2.774c2.911,0.796,6.096,1.638,6.196,5.742c0.078,3.707-3,6.218-6.777,6.218
				c-3.016,0-6.767-1.714-6.937-6.045h3.599c0.145,2.307,2.005,3.073,3.353,3.073c1.76,0,3.124-1.228,3.124-2.836
				c-0.03-1.896-1.471-2.521-4.854-3.646c-2.663-0.792-4.771-2.059-4.809-4.93c0-3.597,2.939-5.783,6.409-5.783
				c2.627,0,6.056,1.299,6.347,5.544H48.768z"/>
			<path fill="#3F3E3F" d="M57.342,195.065h-3.446v-2.829h3.446v-6.864h3.637v6.864h3.675v2.829h-3.675v16.216h-3.637V195.065z"/>
			<path fill="#3F3E3F" d="M68.09,202.918c0.171,3.845,3.533,5.807,6.399,5.807c2.561,0,4.443-1.228,5.488-3.216h3.781
				c-0.905,2.096-2.237,3.658-3.845,4.717c-1.608,1.087-3.492,1.608-5.424,1.608c-6.229,0-10.088-5.011-10.088-10.033
				c0-5.478,4.276-10.134,10.047-10.134c2.739,0,5.229,1.025,7.04,2.82c2.239,2.262,3.186,5.235,2.884,8.431H68.09z M80.758,200.077
				c-0.167-2.516-2.696-5.366-6.31-5.285c-3.708,0-6.126,2.693-6.295,5.285H80.758z"/>
			<path fill="#3F3E3F" d="M87.218,192.236h3.438v2.693c0.807-1.608,3.008-3.263,5.783-3.263c1.752,0,3.573,0.538,4.899,2.034
				c0.49,0.492,1.017,1.502,1.215,1.852c0.313-0.548,0.702-1.222,1.372-1.877c1.225-1.228,2.977-2.009,5.047-2.009
				c1.745,0,3.705,0.487,5.115,1.928c1.673,1.714,2.087,3.54,2.087,7.183v10.504h-3.645v-10.368c0-1.576-0.201-3.154-1.05-4.245
				c-0.649-0.974-1.677-1.557-3.391-1.557c-1.615,0-2.97,0.654-3.68,1.806c-0.761,1.182-0.868,2.236-0.868,3.86v10.504h-3.675
				v-10.504c0.033-1.578-0.136-2.729-0.773-3.785c-0.698-1.115-1.816-1.85-3.606-1.881c-1.714-0.046-2.972,0.812-3.604,1.837
				c-0.708,1.029-1.007,2.358-1.007,3.89v10.443h-3.659V192.236z"/>
			<path fill="#3F3E3F" d="M139.519,211.281h-3.636v-3.322c-1.332,2.541-4.058,3.875-7.076,3.875c-6.122,0-9.767-4.763-9.767-10.073
				c0-5.803,4.24-10.094,9.767-10.094c3.784,0,6.19,2.101,7.076,3.932v-3.362h3.636V211.281z M122.685,201.822
				c0.038,2.841,2.029,6.614,6.647,6.614c2.906,0,4.973-1.613,5.922-3.773c0.414-0.868,0.629-1.848,0.66-2.841
				c0.04-0.984-0.14-1.948-0.553-2.836c-0.915-2.207-3.045-3.921-6.107-3.921c-3.981,0-6.568,3.154-6.568,6.735V201.822z"/>
			<path fill="#3F3E3F" d="M153.335,185.372h4.129v25.909h-4.129V185.372z"/>
			<path fill="#3F3E3F" d="M161.669,192.236h3.439v2.941c0.908-1.969,3.038-3.531,6.431-3.511c6.092,0.071,7.71,4.483,7.71,8.436
				v11.179h-3.682v-10.337c0-3.429-1.324-5.879-5.037-5.833c-3.581,0.031-5.214,2.267-5.214,5.559v10.611h-3.647V192.236z"/>
			<path fill="#3F3E3F" d="M183.616,195.065h-2.607v-2.829h2.607v-1.289c0-5.762,4.443-6.016,7.132-6.066v2.881
				c-1.222,0.03-3.5,0.03-3.5,3.353v1.122h3.5v2.829h-3.5v16.216h-3.632V195.065z"/>
			<path fill="#3F3E3F" d="M190.798,201.726c0-5.082,3.733-10.059,10.149-10.059c6.401,0,10.149,4.977,10.149,10.094
				c0,5.113-3.748,10.043-10.149,10.043c-6.416,0-10.149-4.93-10.149-10.043V201.726z M194.425,201.801
				c0,3.77,2.876,6.605,6.523,6.605c3.637,0,6.508-2.836,6.508-6.646c0-3.819-2.871-6.649-6.508-6.649
				c-3.647,0-6.523,2.83-6.523,6.649V201.801z"/>
			<path fill="#3F3E3F" d="M214.1,192.236h3.418v2.799c1.096-2.236,3.094-3.327,5.686-3.368v3.642h-0.249
				c-3.434,0-5.214,1.902-5.214,5.682v10.291H214.1V192.236z"/>
			<path fill="#3F3E3F" d="M225.371,192.236h3.434v2.693c0.796-1.608,2.998-3.263,5.767-3.263c1.754,0,3.581,0.538,4.9,2.034
				c0.496,0.492,1.014,1.502,1.228,1.852c0.324-0.548,0.71-1.222,1.368-1.877c1.223-1.228,2.982-2.009,5.032-2.009
				c1.755,0,3.723,0.487,5.117,1.928c1.685,1.714,2.115,3.54,2.115,7.183v10.504h-3.651v-10.368c0-1.576-0.213-3.154-1.055-4.245
				c-0.664-0.974-1.675-1.557-3.403-1.557c-1.604,0-2.968,0.654-3.669,1.806c-0.765,1.182-0.872,2.236-0.872,3.86v10.504h-3.676
				v-10.504c0.03-1.578-0.137-2.729-0.767-3.785c-0.71-1.115-1.821-1.85-3.601-1.881c-1.729-0.046-2.982,0.812-3.611,1.837
				c-0.7,1.029-1.004,2.358-1.004,3.89v10.443h-3.652V192.236z"/>
			<path fill="#3F3E3F" d="M277.659,211.281h-3.637v-3.322c-1.334,2.541-4.058,3.875-7.075,3.875c-6.123,0-9.765-4.763-9.765-10.073
				c0-5.803,4.241-10.094,9.765-10.094c3.778,0,6.193,2.101,7.075,3.932v-3.362h3.637V211.281z M260.824,201.822
				c0.03,2.841,2.029,6.614,6.649,6.614c2.907,0,4.971-1.613,5.91-3.773c0.426-0.868,0.639-1.848,0.669-2.841
				c0.046-0.984-0.147-1.948-0.558-2.836c-0.913-2.207-3.044-3.921-6.087-3.921c-3.996,0-6.584,3.154-6.584,6.735V201.822z
				 M271.983,183.105l1.238,2.647l-8.481,4.271l-1.125-2.232L271.983,183.105z"/>
			<path fill="#3F3E3F" d="M283.122,195.065h-3.434v-2.829h3.434v-6.864h3.631v6.864h3.683v2.829h-3.683v16.216h-3.631V195.065z"/>
			<path fill="#3F3E3F" d="M292.46,185.372h3.641v3.861h-3.641V185.372z M292.46,192.236h3.641v19.045h-3.641V192.236z"/>
			<path fill="#3F3E3F" d="M318.921,204.591c-1.146,4.134-4.899,7.243-9.662,7.243c-6.233,0-10.19-4.793-10.19-10.073
				c0-5.641,4.312-10.094,10.022-10.094c4.545,0,8.633,2.82,9.83,7.376h-3.733c-0.999-2.537-3.372-3.978-5.97-3.978
				c-1.911-0.03-3.312,0.599-4.646,1.852c-1.12,1.132-1.86,2.906-1.86,4.844c0,3.915,2.886,6.676,6.507,6.676
				c3.19-0.03,5.184-1.948,5.97-3.846H318.921z"/>
			<path fill="#3F3E3F" d="M320.665,201.726c0-5.082,3.754-10.059,10.155-10.059c6.411,0,10.154,4.977,10.154,10.094
				c0,5.113-3.743,10.043-10.154,10.043c-6.401,0-10.155-4.93-10.155-10.043V201.726z M324.308,201.801
				c0,3.77,2.866,6.605,6.513,6.605c3.642,0,6.502-2.836,6.502-6.646c0-3.819-2.86-6.649-6.502-6.649
				c-3.646,0-6.513,2.83-6.513,6.649V201.801z"/>
			<path fill="#3F3E3F" d="M372.899,211.281h-3.51v-3.322c-1.056,1.948-3.187,3.875-7.101,3.875c-5.991,0-9.771-4.61-9.771-10.108
				c0-5.93,4.271-10.059,9.688-10.059c3.896,0,6.274,2.187,7.046,3.673v-3.354v-6.614h3.647V211.281z M356.161,201.761
				c0.03,3.489,2.48,6.676,6.676,6.676c1.865,0,3.585-0.771,4.771-1.979c1.233-1.238,1.913-2.912,1.852-4.793
				c0-1.897-0.735-3.566-1.922-4.717c-1.192-1.183-2.836-1.883-4.701-1.883c-4.019,0-6.676,3.095-6.676,6.66V201.761z"/>
			<path fill="#3F3E3F" d="M379.36,202.918c0.173,3.845,3.535,5.807,6.411,5.807c2.562,0,4.444-1.228,5.489-3.216h3.794
				c-0.918,2.096-2.242,3.658-3.855,4.717c-1.617,1.087-3.509,1.608-5.428,1.608c-6.238,0-10.078-5.011-10.078-10.033
				c0-5.478,4.266-10.134,10.038-10.134c2.734,0,5.22,1.025,7.04,2.82c2.242,2.262,3.186,5.235,2.866,8.431H379.36z
				 M392.036,200.077c-0.177-2.516-2.693-5.366-6.305-5.285c-3.708,0-6.117,2.693-6.299,5.285H392.036z"/>
			<path fill="#3F3E3F" d="M408.222,185.372h7.75c2.455,0,4.239,0.503,5.498,1.396c1.893,1.162,2.638,3.186,2.638,5.25
				c0,2.724-1.44,4.458-3.303,5.433c4.479,1.43,4.723,5.238,4.723,6.421c-0.03,2.536-1.146,4.717-3.145,5.894
				c-1.816,1.268-3.362,1.517-6.563,1.517h-7.598V185.372z M412.371,196.12h3.403c0.938,0,1.876-0.075,2.612-0.426
				c1.308-0.689,1.754-1.806,1.754-3.185c0-1.562-0.842-2.618-1.754-3.049c-0.624-0.309-1.431-0.462-2.72-0.462h-3.296V196.12z
				 M412.371,207.635h4.164c0.847,0,1.892-0.07,2.764-0.411c1.268-0.562,2.253-1.653,2.283-3.617c0-1.784-0.939-3.002-2.283-3.565
				c-1.025-0.431-1.856-0.461-3.104-0.461h-3.824V207.635z"/>
			<path fill="#3F3E3F" d="M430.737,202.918c0.182,3.845,3.544,5.807,6.415,5.807c2.558,0,4.438-1.228,5.499-3.216h3.778
				c-0.918,2.096-2.246,3.658-3.859,4.717c-1.603,1.087-3.489,1.608-5.418,1.608c-6.233,0-10.082-5.011-10.082-10.033
				c0-5.478,4.261-10.134,10.038-10.134c2.728,0,5.219,1.025,7.04,2.82c2.246,2.262,3.185,5.235,2.875,8.431H430.737z
				 M443.412,200.077c-0.172-2.516-2.688-5.366-6.304-5.285c-3.708,0-6.112,2.693-6.295,5.285H443.412z"/>
			<path fill="#3F3E3F" d="M468.651,204.591c-1.157,4.134-4.9,7.243-9.663,7.243c-6.233,0-10.189-4.793-10.189-10.073
				c0-5.641,4.307-10.094,10.022-10.094c4.544,0,8.643,2.82,9.83,7.376h-3.733c-0.988-2.537-3.373-3.978-5.959-3.978
				c-1.928-0.03-3.322,0.599-4.672,1.852c-1.101,1.132-1.846,2.906-1.846,4.844c0,3.915,2.871,6.676,6.518,6.676
				c3.174-0.03,5.183-1.948,5.959-3.846H468.651z"/>
			<path fill="#3F3E3F" d="M490.877,211.281h-3.641v-3.322c-1.335,2.541-4.059,3.875-7.07,3.875c-6.133,0-9.771-4.763-9.771-10.073
				c0-5.803,4.241-10.094,9.771-10.094c3.783,0,6.191,2.101,7.07,3.932v-3.362h3.641V211.281z M474.033,201.822
				c0.035,2.841,2.028,6.614,6.654,6.614c2.906,0,4.976-1.613,5.924-3.773c0.411-0.868,0.625-1.848,0.66-2.841
				c0.035-0.984-0.138-1.948-0.559-2.836c-0.913-2.207-3.049-3.921-6.091-3.921c-3.993,0-6.589,3.154-6.589,6.735V201.822z"/>
			<path fill="#3F3E3F" d="M503.365,197.211c0-1.477-0.903-2.592-2.76-2.562c-1.79,0-2.77,1.198-2.739,2.45
				c0.072,1.501,1.441,2.207,3.48,2.774c2.896,0.796,6.075,1.638,6.198,5.742c0.07,3.707-3.014,6.218-6.808,6.218
				c-3.012,0-6.746-1.714-6.917-6.045h3.59c0.153,2.307,1.999,3.073,3.368,3.073c1.745,0,3.114-1.228,3.114-2.836
				c-0.046-1.896-1.461-2.521-4.869-3.646c-2.658-0.792-4.752-2.059-4.793-4.93c0-3.597,2.947-5.783,6.406-5.783
				c2.621,0,6.051,1.299,6.329,5.544H503.365z"/>
		</g>
	</g>
</g>
</svg>
