<?xml version="1.0" encoding="utf-8"?>
<!-- Generator: Adobe Illustrator 14.0.0, SVG Export Plug-In . SVG Version: 6.00 Build 43363)  -->
<!DOCTYPE svg PUBLIC "-//W3C//DTD SVG 1.1//EN" "http://www.w3.org/Graphics/SVG/1.1/DTD/svg11.dtd">
<svg version="1.1" id="Capa_1" xmlns="http://www.w3.org/2000/svg" xmlns:xlink="http://www.w3.org/1999/xlink" x="0px" y="0px"
	 width="500px" height="500px" viewBox="0 0 500 500" enable-background="new 0 0 500 500" xml:space="preserve">
<g>
	<path fill="#B3B3B3" d="M258.757,0.839c-133.238,0-241.248,108.009-241.248,241.237c0,133.24,108.009,241.25,241.248,241.25
		c133.228,0,241.243-108.01,241.243-241.25C500,108.848,391.984,0.839,258.757,0.839z M258.757,463.382
		c-122.229,0-221.312-99.074-221.312-221.306c0-122.225,99.083-221.305,221.312-221.305c122.218,0,221.304,99.081,221.304,221.305
		C480.061,364.308,380.975,463.382,258.757,463.382z"/>
	<path fill="#A7A7A7" d="M10.693,248.729H2.898c2.849,137.579,111.655,247.346,251.213,250.432v-7.791
		C119.54,488.272,13.538,381.338,10.693,248.729z"/>
	<path fill="#999999" d="M457.498,188.919h10.305c-18.146-69.782-70.839-127.663-138.929-151.036v10.523
		C391.46,71.07,439.903,124.12,457.498,188.919z"/>
	<g>
		<path fill="#CCCCCC" d="M48.173,173.964c27.3-84.447,103.949-146.653,195.968-152.661V1.32
			C141.03,7.479,55.414,78.393,27.324,173.964H48.173z"/>
	</g>
</g>
</svg>
