<?xml version="1.0" encoding="utf-8"?>
<!-- Generator: Adobe Illustrator 14.0.0, SVG Export Plug-In . SVG Version: 6.00 Build 43363)  -->
<!DOCTYPE svg PUBLIC "-//W3C//DTD SVG 1.1//EN" "http://www.w3.org/Graphics/SVG/1.1/DTD/svg11.dtd">
<svg version="1.1" id="Capa_1" xmlns="http://www.w3.org/2000/svg" xmlns:xlink="http://www.w3.org/1999/xlink" x="0px" y="0px"
	 width="500px" height="500px" viewBox="0 0 500 500" enable-background="new 0 0 500 500" xml:space="preserve">
<g>
	<path fill="#E6E6E6" d="M162.776,98.311h132.654l70.543,71.161v207.673c0,9.909-8.284,17.977-18.505,17.977H162.776
		c-10.224,0-18.511-8.067-18.511-17.977V116.262C144.265,106.347,152.553,98.311,162.776,98.311z"/>
	<path fill="#83C9C5" d="M295.405,98.311v52.146c0,10.227,8.03,18.524,17.932,18.524h52.713L295.405,98.311z"/>
	<path fill="#FFFFFF" d="M326.003,331.1H184.239c-1.93,0-3.509,1.637-3.509,3.668c0,2.057,1.579,3.693,3.509,3.693h141.764
		c1.929,0,3.509-1.637,3.509-3.693C329.512,332.736,327.932,331.1,326.003,331.1z"/>
	<path fill="#FFFFFF" d="M326.003,302.935H184.239c-1.93,0-3.509,1.655-3.509,3.681c0,2.044,1.579,3.699,3.509,3.699h141.764
		c1.929,0,3.509-1.655,3.509-3.699C329.512,304.59,327.932,302.935,326.003,302.935z"/>
	<path fill="#FFFFFF" d="M326.003,274.775H184.239c-1.93,0-3.509,1.65-3.509,3.693c0,2.058,1.579,3.693,3.509,3.693h141.764
		c1.929,0,3.509-1.636,3.509-3.693C329.512,276.426,327.932,274.775,326.003,274.775z"/>
	<path fill="#FFFFFF" d="M326.003,246.63H184.239c-1.93,0-3.509,1.644-3.509,3.688c0,2.031,1.579,3.693,3.509,3.693h141.764
		c1.929,0,3.509-1.662,3.509-3.693C329.512,248.273,327.932,246.63,326.003,246.63z"/>
	<path fill="#FFFFFF" d="M326.003,218.484H184.239c-1.93,0-3.509,1.649-3.509,3.674c0,2.057,1.579,3.693,3.509,3.693h141.764
		c1.929,0,3.509-1.637,3.509-3.693C329.512,220.134,327.932,218.484,326.003,218.484z"/>
</g>
<g>
	<polygon fill="#E57777" points="347.469,356.239 360.688,406.742 340.916,403.412 324.786,415.568 311.338,366.562 	"/>
	<polygon fill="#F97B7A" points="286.91,358.545 277.575,409.908 297.029,405.094 314.051,415.97 323.729,366.084 	"/>
	<path fill="#71BCB6" d="M362.51,331.163c0.98,25.554-18.938,47.039-44.492,48.014c-25.548,0.974-47.052-18.938-48.026-44.492
		c-0.975-25.548,18.944-47.039,44.492-48.014C340.031,285.697,361.541,305.609,362.51,331.163z"/>
	<path fill="#83C9C5" d="M350.475,331.615c0.726,18.906-14.01,34.812-32.916,35.532c-18.893,0.72-34.807-14.021-35.525-32.915
		c-0.727-18.899,14.016-34.812,32.915-35.532C333.854,297.986,349.761,312.722,350.475,331.615z"/>
</g>
</svg>
