<?xml version="1.0" encoding="utf-8"?>
<!-- Generator: Adobe Illustrator 14.0.0, SVG Export Plug-In . SVG Version: 6.00 Build 43363)  -->
<!DOCTYPE svg PUBLIC "-//W3C//DTD SVG 1.1//EN" "http://www.w3.org/Graphics/SVG/1.1/DTD/svg11.dtd">
<svg version="1.1" id="Capa_1" xmlns="http://www.w3.org/2000/svg" xmlns:xlink="http://www.w3.org/1999/xlink" x="0px" y="0px"
	 width="500px" height="500px" viewBox="0 0 500 500" enable-background="new 0 0 500 500" xml:space="preserve">
<path fill="#6AAD85" d="M251.445,216.553c-24.173,0-43.707,19.572-43.707,43.695c0,24.186,19.534,43.727,43.707,43.727
	c24.13,0,43.695-19.541,43.695-43.727C295.141,236.125,275.575,216.553,251.445,216.553z M256.199,285.67v7.352h-8.879v-7.352
	c-9.121-1.104-13.754-8.157-13.836-14.622h10.972c0.247,4.222,3.448,6.972,7.117,6.972c3.886,0,6.757-2.953,6.757-6.318
	c0-5.331-6.446-7.41-12.328-9.197c-4.475-1.337-11.516-4.469-11.516-13.462c0-8.538,6.332-12.975,12.834-14.407v-7.13h8.879v7.13
	c7.149,1.318,11.745,6.465,11.745,13.602h-9.995c-0.26-3.505-2.954-6.008-6.377-6.008c-3.422,0-6.205,2.503-6.205,5.787
	c0,4.753,4.487,6.186,11.567,8.467c8.664,2.903,12.468,8.696,12.468,14.186C269.402,277.057,264.845,283.375,256.199,285.67z"/>
<g>
	<path fill="#81C69E" d="M382.715,175.311H120.184c-5.229,0-9.488,4.792-9.488,10.686v153.865c0,5.919,4.259,10.691,9.488,10.691
		h262.531c5.261,0,9.494-4.772,9.494-10.691V185.997C392.209,180.102,387.976,175.311,382.715,175.311z M378.209,223.835v2.808
		v69.752v2.396v0.589c-12.474,5.42-22.178,16.809-25.993,30.898h-0.532h-2.161h-196.14h-1.344h-1.35
		c-3.815-14.09-13.563-25.479-26.005-30.898v-0.589v-2.396v-69.752v-2.808v-0.14c12.854-4.082,23.324-14.4,28.363-27.761v-0.374
		h0.171h2.776h190.923h1.743h0.995c5.014,13.545,15.56,23.996,28.554,28.135V223.835z"/>
	<path fill="#81C69E" d="M347.976,198.394H154.929c-5.286,12.791-15.332,22.812-27.672,27.362v71.798
		c11.846,5.711,21.087,16.562,25.289,29.923h197.769c4.24-13.361,13.487-24.212,25.309-29.923v-71.798
		C363.275,221.205,353.198,211.184,347.976,198.394z M370.875,294.479c0,0-12.632,2.504-25.707,26.475H157.699
		c0,0-5.71-18.146-25.676-26.475v-64.984c0,0,20.675-6.915,27.248-24.586h184.693c0,0,7.847,18.311,26.911,24.586V294.479z"/>
</g>
<path fill="#6AAD85" d="M392.666,163.598H130.153c-5.235,0-9.488,4.798-9.488,10.692v1.021h262.03c5.273,0,9.482,4.792,9.482,10.686
	v152.837h0.488c5.267,0,9.507-4.766,9.507-10.699V174.29C402.173,168.396,397.933,163.598,392.666,163.598z"/>
</svg>
