<?xml version="1.0" encoding="utf-8"?>
<!-- Generator: Adobe Illustrator 14.0.0, SVG Export Plug-In . SVG Version: 6.00 Build 43363)  -->
<!DOCTYPE svg PUBLIC "-//W3C//DTD SVG 1.1//EN" "http://www.w3.org/Graphics/SVG/1.1/DTD/svg11.dtd">
<svg version="1.1" id="Capa_1" xmlns="http://www.w3.org/2000/svg" xmlns:xlink="http://www.w3.org/1999/xlink" x="0px" y="0px"
	 width="500px" height="500px" viewBox="0 0 500 500" enable-background="new 0 0 500 500" xml:space="preserve">
<path fill="#76C1C2" d="M384.186,261.655v-38.13c0-2.249-1.816-4.073-4.066-4.073c-2.235,0-4.065,1.824-4.065,4.073v38.13
	c-3.979,1.607-6.786,5.496-6.786,10.039v38.664c0,5.985,4.866,10.846,10.852,10.846c5.999,0,10.853-4.86,10.853-10.846v-38.664
	C390.972,267.151,388.164,263.263,384.186,261.655z"/>
<polygon fill="#12334C" points="246.901,148.543 81.945,213.182 246.901,276.981 411.863,212.763 "/>
<path fill="#12334C" d="M246.901,286.429l-97.459-37.697v72.74c0,0,35.757,45.334,97.459,45.334
	c61.703,0,97.456-45.334,97.456-45.334v-72.74h-0.636L246.901,286.429z"/>
</svg>
