<?xml version="1.0" encoding="utf-8"?>
<!-- Generator: Adobe Illustrator 14.0.0, SVG Export Plug-In . SVG Version: 6.00 Build 43363)  -->
<!DOCTYPE svg PUBLIC "-//W3C//DTD SVG 1.1//EN" "http://www.w3.org/Graphics/SVG/1.1/DTD/svg11.dtd">
<svg version="1.1" id="Capa_1" xmlns="http://www.w3.org/2000/svg" xmlns:xlink="http://www.w3.org/1999/xlink" x="0px" y="0px"
	 width="500px" height="500px" viewBox="0 0 500 500" enable-background="new 0 0 500 500" xml:space="preserve">
<g>
	<path fill="#E6E6E6" d="M165.589,109.926h124.284l66.087,66.667v194.572c0,9.28-7.758,16.836-17.333,16.836H165.589
		c-9.579,0-17.344-7.556-17.344-16.836V126.743C148.245,117.457,156.01,109.926,165.589,109.926z"/>
	<path fill="#D9D9D9" d="M289.502,109.926v48.854c0,9.585,7.527,17.356,16.808,17.356h49.382L289.502,109.926z"/>
	<path fill="#FFFFFF" d="M318.51,350.81H185.696c-1.806,0-3.287,1.561-3.287,3.468c0,1.896,1.481,3.455,3.287,3.455H318.51
		c1.819,0,3.286-1.56,3.286-3.455C321.796,352.37,320.329,350.81,318.51,350.81z"/>
	<path fill="#FFFFFF" d="M318.51,318.909H185.696c-1.806,0-3.287,1.535-3.287,3.437c0,1.927,1.481,3.461,3.287,3.461H318.51
		c1.819,0,3.286-1.534,3.286-3.461C321.796,320.444,320.329,318.909,318.51,318.909z"/>
	<path fill="#FFFFFF" d="M318.51,286.989H185.696c-1.806,0-3.287,1.547-3.287,3.448c0,1.915,1.481,3.462,3.287,3.462H318.51
		c1.819,0,3.286-1.547,3.286-3.462C321.796,288.536,320.329,286.989,318.51,286.989z"/>
	<path fill="#FFFFFF" d="M318.51,255.079H185.696c-1.806,0-3.287,1.547-3.287,3.441c0,1.928,1.481,3.462,3.287,3.462H318.51
		c1.819,0,3.286-1.534,3.286-3.462C321.796,256.626,320.329,255.079,318.51,255.079z"/>
	<path fill="#FFFFFF" d="M318.51,223.169H185.696c-1.806,0-3.287,1.561-3.287,3.436c0,1.927,1.481,3.461,3.287,3.461H318.51
		c1.819,0,3.286-1.534,3.286-3.461C321.796,224.729,320.329,223.169,318.51,223.169z"/>
	<path fill="#FFFFFF" d="M318.51,191.25H185.696c-1.806,0-3.287,1.553-3.287,3.461c0,1.92,1.481,3.448,3.287,3.448H318.51
		c1.819,0,3.286-1.528,3.286-3.448C321.796,192.802,320.329,191.25,318.51,191.25z"/>
	<g>
		<polygon fill="#B8B8B8" points="301.226,273.112 361.562,212.765 389.766,241.1 328.893,301.314 328.483,288.021 315.193,287.071 
			314.383,273.372 		"/>
		<polygon fill="#F2F2F2" points="289.502,312.832 301.226,273.112 314.383,273.372 315.193,287.071 328.483,288.021 
			328.893,301.314 		"/>
		<polygon fill="#B8B8B8" points="289.619,312.864 294.174,297.44 304.922,308.396 		"/>
		<polygon fill="#F0F0F0" points="361.47,213.208 374.686,199.959 402.956,227.408 389.665,241.036 		"/>
		<path fill="#D9D9D9" d="M374.658,199.857l13.689-13.742c0,0,20.82,3.854,28.269,26.624l-13.75,14.631L374.658,199.857z"/>
		<polygon fill="#CCCCCC" points="369.611,205.037 371.435,203.205 399.322,231.015 397.454,232.884 		"/>
		<polygon fill="#CCCCCC" points="364.918,209.734 366.728,207.915 394.617,235.725 392.757,237.588 		"/>
	</g>
</g>
</svg>
