<?xml version="1.0" encoding="utf-8"?>
<!-- Generator: Adobe Illustrator 14.0.0, SVG Export Plug-In . SVG Version: 6.00 Build 43363)  -->
<!DOCTYPE svg PUBLIC "-//W3C//DTD SVG 1.1//EN" "http://www.w3.org/Graphics/SVG/1.1/DTD/svg11.dtd">
<svg version="1.1" id="Capa_1" xmlns="http://www.w3.org/2000/svg" xmlns:xlink="http://www.w3.org/1999/xlink" x="0px" y="0px"
	 width="500px" height="500px" viewBox="0 0 500 500" enable-background="new 0 0 500 500" xml:space="preserve">
<path fill="#DBDBDB" d="M374.089,314.713h-203.75c-14.674,0-26.679-12.003-26.679-26.672V173.457
	c0-14.668,12.005-26.679,26.679-26.679h203.75c14.675,0,26.686,12.011,26.686,26.679v114.584
	C400.774,302.71,388.764,314.713,374.089,314.713z"/>
<rect x="143.66" y="182.695" fill="#F2F2F2" width="257.114" height="37.852"/>
<path fill="#E6E6E6" d="M336.732,366.878H131.802c-14.763,0-26.837-12.087-26.837-26.837v-115.25
	c0-14.751,12.074-26.831,26.837-26.831h204.931c14.757,0,26.837,12.08,26.837,26.831v115.25
	C363.569,354.791,351.489,366.878,336.732,366.878z"/>
<path fill="#CCCCCC" d="M327.717,261.66h-20.931c-8.609,0-15.576-6.979-15.576-15.571v-5.068c0-8.598,6.967-15.569,15.576-15.569
	h20.931c8.604,0,15.576,6.972,15.576,15.569v5.068C343.293,254.681,336.32,261.66,327.717,261.66z"/>
<path fill="#D4D4D4" d="M249.487,317.301c0,15.367,12.461,27.815,27.814,27.815c15.36,0,27.815-12.448,27.815-27.815
	c0-15.354-12.455-27.808-27.815-27.808C261.948,289.493,249.487,301.947,249.487,317.301z"/>
<path fill="#CCCCCC" d="M291.21,317.301c0,15.367,12.454,27.815,27.808,27.815c15.367,0,27.809-12.448,27.809-27.815
	c0-15.354-12.441-27.808-27.809-27.808C303.664,289.493,291.21,301.947,291.21,317.301z"/>
<text transform="matrix(1 0 0 1 135.2676 255.584)" fill="#FFFFFF" font-family="'ITCAvantGardeStd-Demi'" font-size="33.0614">BANCO</text>
</svg>
