<?xml version="1.0" encoding="utf-8"?>
<!-- Generator: Adobe Illustrator 14.0.0, SVG Export Plug-In . SVG Version: 6.00 Build 43363)  -->
<!DOCTYPE svg PUBLIC "-//W3C//DTD SVG 1.1//EN" "http://www.w3.org/Graphics/SVG/1.1/DTD/svg11.dtd">
<svg version="1.1" id="Capa_1" xmlns="http://www.w3.org/2000/svg" xmlns:xlink="http://www.w3.org/1999/xlink" x="0px" y="0px"
	 width="500px" height="500px" viewBox="0 0 500 500" enable-background="new 0 0 500 500" xml:space="preserve">
<g>
	<path fill="#E6E6E6" d="M162.965,98.311h132.332l70.363,70.993v207.159c0,9.884-8.26,17.939-18.453,17.939H162.965
		c-10.199,0-18.467-8.056-18.467-17.939V116.224C144.498,106.327,152.766,98.311,162.965,98.311z"/>
	<path fill="#D9D9D9" d="M295.268,98.311v52.025c0,10.202,8.012,18.472,17.893,18.472h52.58L295.268,98.311z"/>
	<path fill="#FFFFFF" d="M325.791,330.535H184.374c-1.925,0-3.5,1.626-3.5,3.659c0,2.046,1.575,3.685,3.5,3.685h141.417
		c1.928,0,3.496-1.639,3.496-3.685C329.287,332.161,327.719,330.535,325.791,330.535z"/>
	<path fill="#FFFFFF" d="M325.791,302.434H184.374c-1.925,0-3.5,1.651-3.5,3.671c0,2.045,1.575,3.697,3.5,3.697h141.417
		c1.928,0,3.496-1.652,3.496-3.697C329.287,304.085,327.719,302.434,325.791,302.434z"/>
	<path fill="#FFFFFF" d="M325.791,274.344H184.374c-1.925,0-3.5,1.651-3.5,3.685c0,2.058,1.575,3.685,3.5,3.685h141.417
		c1.928,0,3.496-1.627,3.496-3.685C329.287,275.995,327.719,274.344,325.791,274.344z"/>
	<path fill="#FFFFFF" d="M325.791,246.267H184.374c-1.925,0-3.5,1.639-3.5,3.685c0,2.02,1.575,3.685,3.5,3.685h141.417
		c1.928,0,3.496-1.665,3.496-3.685C329.287,247.905,327.719,246.267,325.791,246.267z"/>
	<path fill="#FFFFFF" d="M325.791,218.19H184.374c-1.925,0-3.5,1.651-3.5,3.672c0,2.045,1.575,3.684,3.5,3.684h141.417
		c1.928,0,3.496-1.639,3.496-3.684C329.287,219.841,327.719,218.19,325.791,218.19z"/>
	<g>
		<polygon fill="#CCCCCC" points="347.201,355.614 360.389,405.987 340.668,402.671 324.574,414.791 311.158,365.905 		"/>
		<polygon fill="#D9D9D9" points="286.797,357.914 277.479,409.15 296.889,404.348 313.863,415.198 323.523,365.435 		"/>
		<path fill="#CCCCCC" d="M362.211,330.599c0.973,25.486-18.896,46.918-44.387,47.896c-25.484,0.966-46.934-18.892-47.908-44.39
			c-0.971-25.485,18.902-46.918,44.387-47.896C339.789,285.244,361.24,305.102,362.211,330.599z"/>
		<path fill="#D9D9D9" d="M350.205,331.043c0.723,18.867-13.98,34.734-32.836,35.446c-18.852,0.724-34.723-13.987-35.443-32.828
			c-0.721-18.854,13.984-34.734,32.838-35.445C333.619,297.505,349.488,312.202,350.205,331.043z"/>
	</g>
</g>
</svg>
