<?xml version="1.0" encoding="utf-8"?>
<!-- Generator: Adobe Illustrator 14.0.0, SVG Export Plug-In . SVG Version: 6.00 Build 43363)  -->
<!DOCTYPE svg PUBLIC "-//W3C//DTD SVG 1.1//EN" "http://www.w3.org/Graphics/SVG/1.1/DTD/svg11.dtd">
<svg version="1.1" id="Capa_1" xmlns="http://www.w3.org/2000/svg" xmlns:xlink="http://www.w3.org/1999/xlink" x="0px" y="0px"
	 width="350px" height="418.386px" viewBox="0 0 350 418.386" enable-background="new 0 0 350 418.386" xml:space="preserve">
<g>
	<path fill="#ECECED" d="M325.727,30.543h-68.289H83.416h-0.012c-0.783,0-1.534,0.162-2.298,0.211
		c-0.863,0.062-1.763,0.074-2.596,0.224c-0.278,0.05-0.527,0.173-0.813,0.223c-10.643,2.26-18.572,10.581-18.572,20.604v0.049
		v309.468c0,11.75,10.86,21.263,24.279,21.263h68.282h174.029h0.013c1.167,0,2.31-0.161,3.453-0.31
		c0.464-0.063,0.962-0.05,1.417-0.124c0.452-0.088,0.844-0.249,1.278-0.348C342.283,379.408,350,371.199,350,361.324v-0.048V51.806
		C350,40.057,339.146,30.543,325.727,30.543z"/>
	<g>
		<path fill="#9B9C9E" d="M325.131,107.37c0,0.97-0.765,1.751-1.733,1.751H84.248c-0.962,0-1.732-0.781-1.732-1.751l0,0
			c0-0.955,0.77-1.751,1.732-1.751h239.151C324.367,105.619,325.131,106.415,325.131,107.37L325.131,107.37z"/>
		<path fill="#9B9C9E" d="M323.317,360.741c-0.987,0-1.788-0.794-1.788-1.801V109.184c0-1.019,0.801-1.814,1.788-1.814l0,0
			c1.006,0,1.814,0.795,1.814,1.814V358.94C325.131,359.946,324.323,360.741,323.317,360.741L323.317,360.741z"/>
		<path fill="#9B9C9E" d="M263.567,360.741c-0.981,0-1.782-0.794-1.782-1.801V109.184c0-1.019,0.801-1.814,1.782-1.814l0,0
			c0.988,0,1.795,0.795,1.795,1.814V358.94C265.362,359.946,264.555,360.741,263.567,360.741L263.567,360.741z"/>
		<path fill="#9B9C9E" d="M325.131,208.28c0,0.968-0.765,1.75-1.733,1.75H84.248c-0.962,0-1.732-0.783-1.732-1.75l0,0
			c0-0.932,0.77-1.715,1.732-1.715h239.151C324.367,206.565,325.131,207.348,325.131,208.28L325.131,208.28z"/>
		<path fill="#9B9C9E" d="M203.816,360.741c-0.981,0-1.781-0.794-1.781-1.801V109.184c0-1.019,0.8-1.814,1.781-1.814l0,0
			c1.007,0,1.796,0.795,1.796,1.814V358.94C205.612,359.946,204.823,360.741,203.816,360.741L203.816,360.741z"/>
		<path fill="#9B9C9E" d="M325.131,157.832c0,0.956-0.765,1.738-1.733,1.738H84.248c-0.962,0-1.732-0.782-1.732-1.738l0,0
			c0-0.944,0.77-1.74,1.732-1.74h239.151C324.367,156.092,325.131,156.887,325.131,157.832L325.131,157.832z"/>
		<path fill="#9B9C9E" d="M325.131,258.764c0,0.957-0.765,1.726-1.733,1.726H84.248c-0.962,0-1.732-0.769-1.732-1.726l0,0
			c0-0.956,0.77-1.726,1.732-1.726h239.151C324.367,257.039,325.131,257.808,325.131,258.764L325.131,258.764z"/>
		<path fill="#9B9C9E" d="M144.079,360.741c-0.987,0-1.812-0.794-1.812-1.801V109.184c0-1.019,0.826-1.814,1.812-1.814l0,0
			c1,0,1.789,0.795,1.789,1.814V358.94C145.867,359.946,145.079,360.741,144.079,360.741L144.079,360.741z"/>
		<path fill="#9B9C9E" d="M325.131,309.225c0,0.969-0.765,1.751-1.733,1.751H84.248c-0.962,0-1.732-0.782-1.732-1.751l0,0
			c0-0.969,0.77-1.739,1.732-1.739h239.151C324.367,307.486,325.131,308.256,325.131,309.225L325.131,309.225z"/>
		<path fill="#9B9C9E" d="M84.31,360.741c-0.986,0-1.794-0.794-1.794-1.801V109.184c0-1.019,0.808-1.814,1.794-1.814l0,0
			c1.006,0,1.807,0.795,1.807,1.814V358.94C86.117,359.946,85.316,360.741,84.31,360.741L84.31,360.741z"/>
		<path fill="#9B9C9E" d="M325.131,359.685c0,0.97-0.765,1.739-1.733,1.739H84.248c-0.962,0-1.732-0.77-1.732-1.739l0,0
			c0-0.955,0.77-1.725,1.732-1.725h239.151C324.367,357.959,325.131,358.729,325.131,359.685L325.131,359.685z"/>
	</g>
	<g>
		<rect y="155.086" fill="#008D6A" width="119.513" height="119.525"/>
		<g>
			<g>
				<path fill="#ECECED" d="M31.31,171.219l16.978,18.766c4.682,4.856,8.383,9.191,12.333,14.059h0.472
					c3.95-5.068,7.899-9.563,12.078-14.245l16.512-18.58h23.67L71.66,214.862l42.668,43.616H89.942l-17.735-19.635
					c-4.694-5.079-8.631-9.922-12.823-15.164h-0.478c-3.949,5.242-7.899,9.936-12.587,15.164l-17.226,19.635H5.173l42.4-44.536
					L7.166,171.219H31.31z"/>
			</g>
			<polygon fill="#76B085" points="7.166,171.219 89.942,258.478 114.328,258.478 31.31,171.219 			"/>
		</g>
	</g>
	<path fill="#008D6A" d="M325.727,30.543H83.416h-0.012c-0.783,0-1.534,0.162-2.298,0.211c-0.863,0.062-1.763,0.074-2.596,0.224
		c-0.278,0.05-0.527,0.173-0.813,0.223c-10.643,2.26-18.572,10.581-18.572,20.604v0.049v50.435H350V51.806
		C350,40.057,339.146,30.543,325.727,30.543z"/>
</g>
</svg>
